<svg clip-rule="evenodd" fill-rule="evenodd" stroke-linecap="round" stroke-linejoin="round" viewBox="0 0 500 500" xmlns="http://www.w3.org/2000/svg"><path d="m0 0h500v500h-500z" fill="none"/><path d="m360.189 133.962c-115.816 0-108.584 50.224-108.584 50.224l.129 52.033h110.521v15.622h-154.419s-74.11-8.405-74.11 108.454c0 116.86 64.685 112.715 64.685 112.715h38.605v-54.227s-2.081-64.685 63.652-64.685h109.616s61.587.996 61.587-59.521v-100.062s9.35-60.553-111.682-60.553zm-60.941 34.989c10.996 0 19.883 8.887 19.883 19.883s-8.887 19.884-19.883 19.884-19.884-8.888-19.884-19.884 8.888-19.883 19.884-19.883z" fill="#3879b0" fill-rule="nonzero"/><path d="m41.914 138.495c0-70.584 58.083-128.666 128.667-128.666 70.585 0 128.667 58.082 128.667 128.666h-257.334z" fill="#ffcd3c" fill-rule="nonzero"/><path d="m170.581 138.495v186.5c0 17.646 14.521 32.167 32.167 32.167s32.166-14.521 32.166-32.167" fill="none" stroke="#ffcd3c" stroke-width="24.12"/></svg>