<?xml version="1.0" encoding="UTF-8" ?>
<svg version="1.1" width="256" height="256" xmlns="http://www.w3.org/2000/svg" shape-rendering="crispEdges">
<rect x="68" y="20" width="8" height="4" fill="#FFFFFF" />
<rect x="64" y="24" width="4" height="12" fill="#FFFFFF" />
<rect x="68" y="24" width="8" height="4" fill="#0A0A0A" />
<rect x="76" y="24" width="4" height="4" fill="#FFFFFF" />
<rect x="100" y="24" width="8" height="4" fill="#FFFFFF" />
<rect x="68" y="28" width="4" height="8" fill="#0A0A0A" />
<rect x="72" y="28" width="4" height="4" fill="#FFDBDC" />
<rect x="76" y="28" width="4" height="4" fill="#0A0A0A" />
<rect x="80" y="28" width="4" height="4" fill="#FFFFFF" />
<rect x="96" y="28" width="4" height="4" fill="#FFFFFF" />
<rect x="100" y="28" width="8" height="4" fill="#171717" />
<rect x="108" y="28" width="4" height="4" fill="#FFFFFF" />
<rect x="72" y="32" width="4" height="12" fill="#F4B4C1" />
<rect x="76" y="32" width="4" height="32" fill="#FFDBDC" />
<rect x="80" y="32" width="4" height="8" fill="#0A0A0A" />
<rect x="84" y="32" width="4" height="8" fill="#FFFFFF" />
<rect x="92" y="32" width="4" height="24" fill="#FFFFFF" />
<rect x="96" y="32" width="4" height="24" fill="#171717" />
<rect x="100" y="32" width="8" height="4" fill="#FFC7D2" />
<rect x="108" y="32" width="4" height="4" fill="#171717" />
<rect x="112" y="32" width="4" height="4" fill="#FFFFFF" />
<rect x="60" y="36" width="4" height="8" fill="#FFFFFF" />
<rect x="64" y="36" width="4" height="8" fill="#0A0A0A" />
<rect x="68" y="36" width="4" height="16" fill="#FFC8DB" />
<rect x="100" y="36" width="4" height="8" fill="#F4B4C1" />
<rect x="104" y="36" width="8" height="4" fill="#FFC7D2" />
<rect x="112" y="36" width="4" height="4" fill="#0A0A0A" />
<rect x="116" y="36" width="4" height="4" fill="#FFFFFF" />
<rect x="80" y="40" width="4" height="8" fill="#F4B4C1" />
<rect x="84" y="40" width="4" height="4" fill="#0A0A0A" />
<rect x="88" y="40" width="4" height="12" fill="#FFFFFF" />
<rect x="104" y="40" width="4" height="8" fill="#FFC7D2" />
<rect x="108" y="40" width="4" height="8" fill="#F0B8C3" />
<rect x="112" y="40" width="4" height="8" fill="#F4B4C1" />
<rect x="116" y="40" width="4" height="4" fill="#0A0A0A" />
<rect x="120" y="40" width="4" height="4" fill="#FFFFFF" />
<rect x="56" y="44" width="4" height="16" fill="#FFFFFF" />
<rect x="60" y="44" width="4" height="16" fill="#0A0A0A" />
<rect x="64" y="44" width="4" height="4" fill="#FFC8DB" />
<rect x="72" y="44" width="4" height="8" fill="#FFC8DB" />
<rect x="84" y="44" width="4" height="8" fill="#171717" />
<rect x="100" y="44" width="4" height="4" fill="#FFDBDC" />
<rect x="116" y="44" width="4" height="4" fill="#F4B4C1" />
<rect x="120" y="44" width="4" height="4" fill="#171717" />
<rect x="124" y="44" width="4" height="8" fill="#FFFFFF" />
<rect x="64" y="48" width="4" height="8" fill="#FFDBDC" />
<rect x="80" y="48" width="4" height="16" fill="#FFDBDC" />
<rect x="100" y="48" width="4" height="8" fill="#F4B4C1" />
<rect x="104" y="48" width="4" height="16" fill="#FFDBDC" />
<rect x="108" y="48" width="4" height="4" fill="#F4B4C1" />
<rect x="112" y="48" width="4" height="4" fill="#FFC7D2" />
<rect x="116" y="48" width="4" height="8" fill="#FFDBDC" />
<rect x="120" y="48" width="4" height="4" fill="#0A0A0A" />
<rect x="68" y="52" width="4" height="4" fill="#FFDBDC" />
<rect x="72" y="52" width="4" height="4" fill="#F4B4C1" />
<rect x="84" y="52" width="4" height="8" fill="#FFDBDC" />
<rect x="88" y="52" width="4" height="4" fill="#0A0A0A" />
<rect x="108" y="52" width="4" height="24" fill="#FFDBDC" />
<rect x="112" y="52" width="4" height="8" fill="#F4B4C1" />
<rect x="120" y="52" width="4" height="8" fill="#FFDBDC" />
<rect x="124" y="52" width="4" height="4" fill="#0A0A0A" />
<rect x="128" y="52" width="4" height="8" fill="#FFFFFF" />
<rect x="64" y="56" width="4" height="24" fill="#FFE4F0" />
<rect x="68" y="56" width="4" height="8" fill="#F4B4C1" />
<rect x="72" y="56" width="4" height="16" fill="#FFDBDC" />
<rect x="88" y="56" width="4" height="8" fill="#F4B4C1" />
<rect x="92" y="56" width="4" height="24" fill="#0A0A0A" />
<rect x="96" y="56" width="4" height="4" fill="#FFC7D2" />
<rect x="100" y="56" width="4" height="20" fill="#FFDBDC" />
<rect x="116" y="56" width="4" height="4" fill="#F4B4C1" />
<rect x="124" y="56" width="4" height="8" fill="#171717" />
<rect x="52" y="60" width="4" height="20" fill="#FFFFFF" />
<rect x="56" y="60" width="4" height="12" fill="#0A0A0A" />
<rect x="60" y="60" width="4" height="20" fill="#272727" />
<rect x="84" y="60" width="4" height="8" fill="#F4B4C1" />
<rect x="96" y="60" width="4" height="8" fill="#FFDBDC" />
<rect x="112" y="60" width="8" height="4" fill="#FFDBDC" />
<rect x="120" y="60" width="4" height="28" fill="#232425" />
<rect x="128" y="60" width="4" height="8" fill="#0A0A0A" />
<rect x="132" y="60" width="4" height="24" fill="#FFFFFF" />
<rect x="68" y="64" width="4" height="12" fill="#FFE4F0" />
<rect x="76" y="64" width="4" height="8" fill="#FFE4F0" />
<rect x="80" y="64" width="4" height="8" fill="#F4B4C1" />
<rect x="88" y="64" width="4" height="12" fill="#171717" />
<rect x="104" y="64" width="4" height="4" fill="#F4B4C1" />
<rect x="112" y="64" width="4" height="4" fill="#FFDBDC" />
<rect x="116" y="64" width="4" height="28" fill="#232425" />
<rect x="124" y="64" width="4" height="20" fill="#232425" />
<rect x="84" y="68" width="4" height="8" fill="#171717" />
<rect x="96" y="68" width="4" height="20" fill="#272727" />
<rect x="104" y="68" width="4" height="4" fill="#FFDBDC" />
<rect x="112" y="68" width="4" height="4" fill="#272727" />
<rect x="128" y="68" width="4" height="16" fill="#171717" />
<rect x="56" y="72" width="4" height="8" fill="#171717" />
<rect x="72" y="72" width="4" height="4" fill="#272727" />
<rect x="76" y="72" width="4" height="4" fill="#393939" />
<rect x="80" y="72" width="4" height="4" fill="#171717" />
<rect x="104" y="72" width="4" height="8" fill="#F4B4C1" />
<rect x="112" y="72" width="4" height="16" fill="#393939" />
<rect x="68" y="76" width="8" height="4" fill="#393939" />
<rect x="76" y="76" width="16" height="4" fill="#0A0A0A" />
<rect x="100" y="76" width="4" height="12" fill="#272727" />
<rect x="108" y="76" width="4" height="4" fill="#272727" />
<rect x="176" y="76" width="24" height="4" fill="#FFFFFF" />
<rect x="56" y="80" width="4" height="12" fill="#FFFFFF" />
<rect x="60" y="80" width="4" height="12" fill="#171717" />
<rect x="64" y="80" width="4" height="4" fill="#393939" />
<rect x="68" y="80" width="8" height="4" fill="#0A0A0A" />
<rect x="76" y="80" width="4" height="4" fill="#232425" />
<rect x="80" y="80" width="8" height="20" fill="#FFFFFA" />
<rect x="88" y="80" width="4" height="4" fill="#0A0A0A" />
<rect x="92" y="80" width="4" height="4" fill="#272727" />
<rect x="104" y="80" width="4" height="4" fill="#272727" />
<rect x="108" y="80" width="4" height="16" fill="#393939" />
<rect x="172" y="80" width="4" height="4" fill="#FFFFFF" />
<rect x="176" y="80" width="16" height="4" fill="#F0F0F0" />
<rect x="192" y="80" width="4" height="4" fill="#C9C9C9" />
<rect x="196" y="80" width="4" height="4" fill="#171717" />
<rect x="200" y="80" width="4" height="4" fill="#FFFFFF" />
<rect x="64" y="84" width="4" height="4" fill="#0A0A0A" />
<rect x="68" y="84" width="8" height="8" fill="#232425" />
<rect x="76" y="84" width="4" height="28" fill="#FFFFFA" />
<rect x="88" y="84" width="4" height="12" fill="#FFFFFA" />
<rect x="92" y="84" width="4" height="4" fill="#393939" />
<rect x="104" y="84" width="4" height="12" fill="#393939" />
<rect x="124" y="84" width="4" height="8" fill="#171717" />
<rect x="128" y="84" width="4" height="4" fill="#FFFFFF" />
<rect x="176" y="84" width="4" height="4" fill="#FFFFFF" />
<rect x="180" y="84" width="16" height="4" fill="#F0F0F0" />
<rect x="196" y="84" width="4" height="4" fill="#C9C9C9" />
<rect x="200" y="84" width="4" height="4" fill="#0A0A0A" />
<rect x="204" y="84" width="4" height="4" fill="#FFFFFF" />
<rect x="64" y="88" width="4" height="12" fill="#232425" />
<rect x="92" y="88" width="4" height="4" fill="#FFFFFA" />
<rect x="96" y="88" width="8" height="4" fill="#393939" />
<rect x="112" y="88" width="4" height="48" fill="#232425" />
<rect x="120" y="88" width="4" height="4" fill="#242527" />
<rect x="128" y="88" width="4" height="4" fill="#171717" />
<rect x="132" y="88" width="4" height="20" fill="#FFFFFF" />
<rect x="180" y="88" width="8" height="4" fill="#FFFFFF" />
<rect x="188" y="88" width="4" height="4" fill="#F0F0F0" />
<rect x="192" y="88" width="4" height="8" fill="#C9C9C9" />
<rect x="196" y="88" width="8" height="8" fill="#232425" />
<rect x="204" y="88" width="4" height="4" fill="#171717" />
<rect x="208" y="88" width="4" height="4" fill="#FFFFFF" />
<rect x="52" y="92" width="4" height="4" fill="#FFFFFF" />
<rect x="56" y="92" width="4" height="4" fill="#171717" />
<rect x="60" y="92" width="4" height="16" fill="#232425" />
<rect x="68" y="92" width="4" height="4" fill="#232425" />
<rect x="72" y="92" width="4" height="28" fill="#FFFFFA" />
<rect x="92" y="92" width="12" height="48" fill="#232425" />
<rect x="116" y="92" width="4" height="4" fill="#242527" />
<rect x="120" y="92" width="4" height="4" fill="#000000" />
<rect x="124" y="92" width="4" height="24" fill="#272727" />
<rect x="128" y="92" width="4" height="4" fill="#242527" />
<rect x="188" y="92" width="4" height="4" fill="#FFFFFF" />
<rect x="204" y="92" width="4" height="48" fill="#232425" />
<rect x="208" y="92" width="4" height="4" fill="#171717" />
<rect x="212" y="92" width="4" height="4" fill="#FFFFFF" />
<rect x="48" y="96" width="4" height="8" fill="#FFFFFF" />
<rect x="52" y="96" width="4" height="8" fill="#171717" />
<rect x="56" y="96" width="4" height="28" fill="#232425" />
<rect x="68" y="96" width="4" height="60" fill="#FFFFFA" />
<rect x="88" y="96" width="4" height="20" fill="#232425" />
<rect x="104" y="96" width="8" height="40" fill="#232425" />
<rect x="116" y="96" width="8" height="4" fill="#272727" />
<rect x="128" y="96" width="4" height="12" fill="#171717" />
<rect x="192" y="96" width="4" height="8" fill="#FFFFFF" />
<rect x="196" y="96" width="4" height="4" fill="#0A0A0A" />
<rect x="200" y="96" width="4" height="8" fill="#232425" />
<rect x="208" y="96" width="4" height="40" fill="#232425" />
<rect x="212" y="96" width="4" height="8" fill="#171717" />
<rect x="216" y="96" width="4" height="8" fill="#FFFFFF" />
<rect x="64" y="100" width="4" height="56" fill="#FFFFFA" />
<rect x="80" y="100" width="4" height="4" fill="#FFFFFA" />
<rect x="84" y="100" width="4" height="16" fill="#232425" />
<rect x="116" y="100" width="8" height="20" fill="#232425" />
<rect x="196" y="100" width="4" height="4" fill="#171717" />
<rect x="44" y="104" width="4" height="8" fill="#FFFFFF" />
<rect x="48" y="104" width="4" height="4" fill="#171717" />
<rect x="52" y="104" width="4" height="8" fill="#232425" />
<rect x="80" y="104" width="4" height="32" fill="#232425" />
<rect x="196" y="104" width="4" height="24" fill="#FFFFFF" />
<rect x="200" y="104" width="4" height="4" fill="#171717" />
<rect x="212" y="104" width="4" height="4" fill="#272727" />
<rect x="216" y="104" width="4" height="4" fill="#171717" />
<rect x="220" y="104" width="4" height="8" fill="#FFFFFF" />
<rect x="48" y="108" width="4" height="4" fill="#000000" />
<rect x="60" y="108" width="4" height="48" fill="#FFFFFA" />
<rect x="128" y="108" width="4" height="8" fill="#363636" />
<rect x="132" y="108" width="4" height="8" fill="#171717" />
<rect x="136" y="108" width="4" height="28" fill="#FFFFFF" />
<rect x="200" y="108" width="4" height="12" fill="#0A0A0A" />
<rect x="212" y="108" width="4" height="24" fill="#232425" />
<rect x="216" y="108" width="4" height="4" fill="#0A0A0A" />
<rect x="40" y="112" width="4" height="8" fill="#FFFFFF" />
<rect x="44" y="112" width="4" height="8" fill="#000000" />
<rect x="48" y="112" width="4" height="20" fill="#232425" />
<rect x="52" y="112" width="4" height="12" fill="#000000" />
<rect x="76" y="112" width="4" height="24" fill="#232425" />
<rect x="216" y="112" width="4" height="8" fill="#272727" />
<rect x="220" y="112" width="4" height="8" fill="#171717" />
<rect x="224" y="112" width="4" height="8" fill="#FFFFFF" />
<rect x="84" y="116" width="8" height="12" fill="#000000" />
<rect x="124" y="116" width="4" height="16" fill="#232425" />
<rect x="128" y="116" width="4" height="8" fill="#272727" />
<rect x="132" y="116" width="4" height="24" fill="#FFFFFA" />
<rect x="36" y="120" width="4" height="8" fill="#FFFFFF" />
<rect x="40" y="120" width="4" height="8" fill="#000000" />
<rect x="44" y="120" width="4" height="16" fill="#232425" />
<rect x="72" y="120" width="4" height="8" fill="#232425" />
<rect x="116" y="120" width="4" height="12" fill="#363636" />
<rect x="120" y="120" width="4" height="4" fill="#232425" />
<rect x="200" y="120" width="4" height="8" fill="#171717" />
<rect x="216" y="120" width="4" height="4" fill="#232425" />
<rect x="220" y="120" width="4" height="4" fill="#272727" />
<rect x="224" y="120" width="4" height="4" fill="#0A0A0A" />
<rect x="52" y="124" width="4" height="8" fill="#232425" />
<rect x="56" y="124" width="4" height="28" fill="#FFFFFA" />
<rect x="120" y="124" width="4" height="8" fill="#171717" />
<rect x="128" y="124" width="4" height="24" fill="#FFFFFA" />
<rect x="172" y="124" width="12" height="4" fill="#FFFFFF" />
<rect x="216" y="124" width="4" height="4" fill="#272727" />
<rect x="220" y="124" width="4" height="4" fill="#0A0A0A" />
<rect x="224" y="124" width="4" height="4" fill="#FFFFFF" />
<rect x="32" y="128" width="4" height="12" fill="#FFFFFF" />
<rect x="36" y="128" width="4" height="12" fill="#000000" />
<rect x="40" y="128" width="4" height="8" fill="#232425" />
<rect x="72" y="128" width="4" height="32" fill="#FFFFFA" />
<rect x="84" y="128" width="8" height="8" fill="#232425" />
<rect x="160" y="128" width="12" height="4" fill="#FFFFFF" />
<rect x="172" y="128" width="8" height="4" fill="#0A0A0A" />
<rect x="180" y="128" width="4" height="4" fill="#171717" />
<rect x="184" y="128" width="12" height="4" fill="#FFFFFF" />
<rect x="196" y="128" width="4" height="4" fill="#171717" />
<rect x="200" y="128" width="4" height="12" fill="#232425" />
<rect x="216" y="128" width="4" height="4" fill="#232425" />
<rect x="220" y="128" width="4" height="4" fill="#272727" />
<rect x="224" y="128" width="4" height="4" fill="#0A0A0A" />
<rect x="48" y="132" width="8" height="16" fill="#FFFFFA" />
<rect x="116" y="132" width="4" height="8" fill="#171717" />
<rect x="120" y="132" width="4" height="8" fill="#232425" />
<rect x="124" y="132" width="4" height="20" fill="#FFFFFA" />
<rect x="152" y="132" width="8" height="4" fill="#FFFFFF" />
<rect x="160" y="132" width="4" height="4" fill="#171717" />
<rect x="164" y="132" width="8" height="4" fill="#0A0A0A" />
<rect x="172" y="132" width="4" height="4" fill="#000000" />
<rect x="176" y="132" width="4" height="4" fill="#272727" />
<rect x="180" y="132" width="4" height="4" fill="#000000" />
<rect x="184" y="132" width="8" height="4" fill="#0A0A0A" />
<rect x="192" y="132" width="4" height="4" fill="#171717" />
<rect x="196" y="132" width="4" height="4" fill="#232425" />
<rect x="212" y="132" width="4" height="8" fill="#272727" />
<rect x="216" y="132" width="4" height="8" fill="#000000" />
<rect x="220" y="132" width="4" height="8" fill="#171717" />
<rect x="224" y="132" width="4" height="8" fill="#FFFFFF" />
<rect x="40" y="136" width="8" height="12" fill="#FFFFFA" />
<rect x="76" y="136" width="12" height="16" fill="#FFFFFA" />
<rect x="88" y="136" width="4" height="16" fill="#232425" />
<rect x="104" y="136" width="4" height="4" fill="#232425" />
<rect x="108" y="136" width="4" height="4" fill="#272727" />
<rect x="112" y="136" width="4" height="4" fill="#383839" />
<rect x="136" y="136" width="4" height="4" fill="#171717" />
<rect x="140" y="136" width="12" height="4" fill="#FFFFFF" />
<rect x="152" y="136" width="8" height="4" fill="#171717" />
<rect x="160" y="136" width="4" height="4" fill="#000000" />
<rect x="164" y="136" width="8" height="4" fill="#C9C9C9" />
<rect x="172" y="136" width="8" height="4" fill="#232425" />
<rect x="180" y="136" width="4" height="4" fill="#C9C9C9" />
<rect x="184" y="136" width="8" height="8" fill="#F0F0F0" />
<rect x="192" y="136" width="4" height="4" fill="#000000" />
<rect x="196" y="136" width="4" height="4" fill="#0A0A0A" />
<rect x="208" y="136" width="4" height="8" fill="#272727" />
<rect x="28" y="140" width="4" height="16" fill="#FFFFFF" />
<rect x="32" y="140" width="4" height="16" fill="#000000" />
<rect x="36" y="140" width="4" height="8" fill="#FDFBF5" />
<rect x="92" y="140" width="8" height="8" fill="#232425" />
<rect x="100" y="140" width="4" height="8" fill="#272727" />
<rect x="104" y="140" width="8" height="4" fill="#383839" />
<rect x="112" y="140" width="4" height="4" fill="#171717" />
<rect x="116" y="140" width="4" height="4" fill="#232425" />
<rect x="120" y="140" width="4" height="16" fill="#FFFFFA" />
<rect x="132" y="140" width="4" height="4" fill="#171717" />
<rect x="136" y="140" width="4" height="4" fill="#000000" />
<rect x="140" y="140" width="12" height="4" fill="#171717" />
<rect x="152" y="140" width="4" height="4" fill="#000000" />
<rect x="156" y="140" width="4" height="4" fill="#272727" />
<rect x="160" y="140" width="4" height="28" fill="#232425" />
<rect x="164" y="140" width="4" height="4" fill="#FFFFFA" />
<rect x="168" y="140" width="12" height="4" fill="#C9C9C9" />
<rect x="180" y="140" width="4" height="12" fill="#F0F0F0" />
<rect x="192" y="140" width="4" height="4" fill="#272727" />
<rect x="196" y="140" width="4" height="4" fill="#000000" />
<rect x="200" y="140" width="4" height="4" fill="#0A0A0A" />
<rect x="204" y="140" width="4" height="4" fill="#000000" />
<rect x="212" y="140" width="4" height="4" fill="#000000" />
<rect x="216" y="140" width="4" height="4" fill="#0A0A0A" />
<rect x="220" y="140" width="4" height="4" fill="#FFFFFF" />
<rect x="104" y="144" width="4" height="4" fill="#000000" />
<rect x="108" y="144" width="4" height="4" fill="#171717" />
<rect x="112" y="144" width="4" height="4" fill="#383839" />
<rect x="116" y="144" width="4" height="36" fill="#FFFFFA" />
<rect x="132" y="144" width="28" height="20" fill="#232425" />
<rect x="164" y="144" width="4" height="32" fill="#232425" />
<rect x="168" y="144" width="8" height="4" fill="#FFFFFA" />
<rect x="176" y="144" width="4" height="8" fill="#F0F0F0" />
<rect x="184" y="144" width="4" height="4" fill="#F0F0F0" />
<rect x="188" y="144" width="8" height="24" fill="#232425" />
<rect x="196" y="144" width="4" height="32" fill="#272727" />
<rect x="200" y="144" width="4" height="8" fill="#000000" />
<rect x="204" y="144" width="4" height="16" fill="#0A0A0A" />
<rect x="208" y="144" width="4" height="4" fill="#000000" />
<rect x="212" y="144" width="4" height="4" fill="#0A0A0A" />
<rect x="216" y="144" width="4" height="4" fill="#FFFFFF" />
<rect x="36" y="148" width="4" height="4" fill="#FFF6F4" />
<rect x="40" y="148" width="4" height="4" fill="#FFE4F0" />
<rect x="44" y="148" width="8" height="8" fill="#FFC8DB" />
<rect x="52" y="148" width="4" height="4" fill="#FFF2F9" />
<rect x="92" y="148" width="4" height="4" fill="#232425" />
<rect x="96" y="148" width="4" height="4" fill="#272727" />
<rect x="100" y="148" width="4" height="4" fill="#171717" />
<rect x="104" y="148" width="8" height="4" fill="#383839" />
<rect x="112" y="148" width="4" height="4" fill="#F0F0F0" />
<rect x="128" y="148" width="4" height="12" fill="#232425" />
<rect x="168" y="148" width="8" height="28" fill="#232425" />
<rect x="184" y="148" width="4" height="28" fill="#232425" />
<rect x="208" y="148" width="4" height="4" fill="#0A0A0A" />
<rect x="212" y="148" width="4" height="4" fill="#FFFFFF" />
<rect x="36" y="152" width="4" height="4" fill="#FFA5C9" />
<rect x="40" y="152" width="4" height="4" fill="#FFC8DB" />
<rect x="52" y="152" width="8" height="8" fill="#FFC8DB" />
<rect x="76" y="152" width="8" height="8" fill="#FFFFFA" />
<rect x="84" y="152" width="4" height="8" fill="#363636" />
<rect x="88" y="152" width="4" height="4" fill="#272727" />
<rect x="92" y="152" width="4" height="4" fill="#000000" />
<rect x="96" y="152" width="4" height="4" fill="#171717" />
<rect x="100" y="152" width="4" height="8" fill="#383839" />
<rect x="104" y="152" width="8" height="4" fill="#F0F0F0" />
<rect x="112" y="152" width="4" height="32" fill="#FFFFFA" />
<rect x="124" y="152" width="4" height="12" fill="#232425" />
<rect x="176" y="152" width="8" height="20" fill="#232425" />
<rect x="200" y="152" width="4" height="16" fill="#272727" />
<rect x="208" y="152" width="4" height="24" fill="#FFFFFF" />
<rect x="32" y="156" width="4" height="8" fill="#FFFFFF" />
<rect x="36" y="156" width="4" height="8" fill="#000000" />
<rect x="40" y="156" width="4" height="8" fill="#1A1A1A" />
<rect x="44" y="156" width="4" height="8" fill="#343434" />
<rect x="48" y="156" width="4" height="4" fill="#4D4D4D" />
<rect x="60" y="156" width="8" height="8" fill="#FFC8DB" />
<rect x="68" y="156" width="4" height="4" fill="#FFF2F9" />
<rect x="88" y="156" width="4" height="4" fill="#000000" />
<rect x="92" y="156" width="4" height="4" fill="#171717" />
<rect x="96" y="156" width="4" height="12" fill="#272727" />
<rect x="104" y="156" width="4" height="4" fill="#F0F0F0" />
<rect x="108" y="156" width="4" height="28" fill="#FFFFFA" />
<rect x="120" y="156" width="4" height="8" fill="#232425" />
<rect x="48" y="160" width="8" height="4" fill="#343434" />
<rect x="56" y="160" width="4" height="4" fill="#FFC8DB" />
<rect x="68" y="160" width="4" height="8" fill="#FFC8DB" />
<rect x="72" y="160" width="4" height="4" fill="#FFF2F9" />
<rect x="76" y="160" width="4" height="4" fill="#FFFFFA" />
<rect x="80" y="160" width="4" height="4" fill="#FFF2F9" />
<rect x="84" y="160" width="4" height="4" fill="#272727" />
<rect x="88" y="160" width="4" height="4" fill="#171717" />
<rect x="92" y="160" width="4" height="8" fill="#FFFFFF" />
<rect x="100" y="160" width="4" height="4" fill="#F0F0F0" />
<rect x="104" y="160" width="4" height="24" fill="#FFFFFA" />
<rect x="128" y="160" width="4" height="4" fill="#383839" />
<rect x="204" y="160" width="4" height="16" fill="#171717" />
<rect x="36" y="164" width="4" height="4" fill="#FFFFFF" />
<rect x="40" y="164" width="4" height="4" fill="#000000" />
<rect x="44" y="164" width="8" height="4" fill="#1A1A1A" />
<rect x="52" y="164" width="4" height="4" fill="#343434" />
<rect x="56" y="164" width="8" height="8" fill="#F4B4C1" />
<rect x="64" y="164" width="4" height="4" fill="#FFC8DB" />
<rect x="72" y="164" width="4" height="4" fill="#FFC8DB" />
<rect x="76" y="164" width="4" height="4" fill="#FFF2F9" />
<rect x="80" y="164" width="4" height="4" fill="#FFC8DB" />
<rect x="84" y="164" width="4" height="4" fill="#171717" />
<rect x="88" y="164" width="4" height="8" fill="#FFFFFF" />
<rect x="100" y="164" width="4" height="20" fill="#FFFFFA" />
<rect x="120" y="164" width="8" height="4" fill="#FFFFFA" />
<rect x="128" y="164" width="28" height="4" fill="#232425" />
<rect x="156" y="164" width="4" height="4" fill="#272727" />
<rect x="40" y="168" width="4" height="4" fill="#FFFFFF" />
<rect x="44" y="168" width="12" height="4" fill="#000000" />
<rect x="64" y="168" width="8" height="4" fill="#F4B4C1" />
<rect x="72" y="168" width="8" height="4" fill="#FFC7D2" />
<rect x="80" y="168" width="8" height="4" fill="#FFFFFF" />
<rect x="92" y="168" width="4" height="4" fill="#272727" />
<rect x="96" y="168" width="4" height="4" fill="#FFFFFA" />
<rect x="120" y="168" width="4" height="8" fill="#FFFFFA" />
<rect x="124" y="168" width="4" height="12" fill="#F0F0F0" />
<rect x="128" y="168" width="4" height="4" fill="#383839" />
<rect x="132" y="168" width="28" height="4" fill="#232425" />
<rect x="160" y="168" width="4" height="4" fill="#272727" />
<rect x="188" y="168" width="4" height="4" fill="#232425" />
<rect x="192" y="168" width="4" height="8" fill="#272727" />
<rect x="200" y="168" width="4" height="8" fill="#000000" />
<rect x="44" y="172" width="36" height="4" fill="#FFFFFF" />
<rect x="92" y="172" width="4" height="4" fill="#FFFFFF" />
<rect x="96" y="172" width="4" height="4" fill="#272727" />
<rect x="128" y="172" width="4" height="4" fill="#000000" />
<rect x="132" y="172" width="16" height="8" fill="#232425" />
<rect x="148" y="172" width="4" height="16" fill="#272727" />
<rect x="152" y="172" width="4" height="4" fill="#232425" />
<rect x="156" y="172" width="4" height="8" fill="#272727" />
<rect x="160" y="172" width="4" height="4" fill="#232425" />
<rect x="176" y="172" width="4" height="8" fill="#272727" />
<rect x="180" y="172" width="4" height="4" fill="#232425" />
<rect x="188" y="172" width="4" height="8" fill="#272727" />
<rect x="88" y="176" width="4" height="4" fill="#FFFFFF" />
<rect x="92" y="176" width="4" height="4" fill="#272727" />
<rect x="96" y="176" width="4" height="4" fill="#FFFFFA" />
<rect x="120" y="176" width="4" height="8" fill="#F0F0F0" />
<rect x="128" y="176" width="4" height="8" fill="#171717" />
<rect x="152" y="176" width="4" height="8" fill="#000000" />
<rect x="160" y="176" width="8" height="4" fill="#272727" />
<rect x="168" y="176" width="8" height="4" fill="#363636" />
<rect x="180" y="176" width="8" height="4" fill="#272727" />
<rect x="192" y="176" width="8" height="12" fill="#363636" />
<rect x="200" y="176" width="4" height="8" fill="#171717" />
<rect x="204" y="176" width="4" height="8" fill="#FFFFFF" />
<rect x="92" y="180" width="4" height="12" fill="#FFFFFF" />
<rect x="96" y="180" width="4" height="4" fill="#272727" />
<rect x="116" y="180" width="4" height="8" fill="#F0F0F0" />
<rect x="124" y="180" width="4" height="4" fill="#C9C9C9" />
<rect x="132" y="180" width="12" height="12" fill="#232425" />
<rect x="144" y="180" width="4" height="20" fill="#272727" />
<rect x="156" y="180" width="12" height="4" fill="#363636" />
<rect x="168" y="180" width="8" height="4" fill="#000000" />
<rect x="176" y="180" width="16" height="8" fill="#363636" />
<rect x="208" y="180" width="4" height="4" fill="#FFFFFF" />
<rect x="96" y="184" width="4" height="8" fill="#0A0A0A" />
<rect x="100" y="184" width="4" height="4" fill="#272727" />
<rect x="104" y="184" width="12" height="4" fill="#F0F0F0" />
<rect x="120" y="184" width="4" height="12" fill="#C9C9C9" />
<rect x="124" y="184" width="4" height="4" fill="#000000" />
<rect x="128" y="184" width="4" height="8" fill="#232425" />
<rect x="152" y="184" width="4" height="12" fill="#171717" />
<rect x="156" y="184" width="8" height="4" fill="#000000" />
<rect x="164" y="184" width="12" height="4" fill="#171717" />
<rect x="200" y="184" width="4" height="4" fill="#363636" />
<rect x="204" y="184" width="8" height="4" fill="#171717" />
<rect x="212" y="184" width="4" height="20" fill="#FFFFFF" />
<rect x="100" y="188" width="4" height="4" fill="#171717" />
<rect x="104" y="188" width="8" height="4" fill="#272727" />
<rect x="112" y="188" width="8" height="4" fill="#C9C9C9" />
<rect x="124" y="188" width="4" height="4" fill="#171717" />
<rect x="148" y="188" width="4" height="8" fill="#363636" />
<rect x="156" y="188" width="4" height="12" fill="#272727" />
<rect x="160" y="188" width="4" height="28" fill="#0A0A0A" />
<rect x="164" y="188" width="8" height="8" fill="#FFFFFF" />
<rect x="172" y="188" width="4" height="8" fill="#171717" />
<rect x="176" y="188" width="12" height="4" fill="#363636" />
<rect x="188" y="188" width="16" height="4" fill="#272727" />
<rect x="204" y="188" width="4" height="8" fill="#000000" />
<rect x="208" y="188" width="4" height="8" fill="#171717" />
<rect x="88" y="192" width="4" height="12" fill="#FFFFFF" />
<rect x="92" y="192" width="4" height="12" fill="#0A0A0A" />
<rect x="96" y="192" width="8" height="12" fill="#000000" />
<rect x="104" y="192" width="8" height="4" fill="#171717" />
<rect x="112" y="192" width="8" height="4" fill="#272727" />
<rect x="124" y="192" width="4" height="4" fill="#000000" />
<rect x="128" y="192" width="12" height="4" fill="#C9C9C9" />
<rect x="140" y="192" width="4" height="4" fill="#272727" />
<rect x="176" y="192" width="4" height="8" fill="#171717" />
<rect x="180" y="192" width="4" height="8" fill="#363636" />
<rect x="184" y="192" width="8" height="4" fill="#272727" />
<rect x="192" y="192" width="8" height="4" fill="#363636" />
<rect x="200" y="192" width="4" height="4" fill="#272727" />
<rect x="104" y="196" width="4" height="12" fill="#000000" />
<rect x="108" y="196" width="8" height="4" fill="#171717" />
<rect x="116" y="196" width="8" height="8" fill="#000000" />
<rect x="124" y="196" width="4" height="4" fill="#C9C9C9" />
<rect x="128" y="196" width="4" height="8" fill="#F0F0F0" />
<rect x="132" y="196" width="12" height="4" fill="#C9C9C9" />
<rect x="148" y="196" width="4" height="12" fill="#000000" />
<rect x="152" y="196" width="4" height="4" fill="#272727" />
<rect x="164" y="196" width="4" height="20" fill="#FFFFFF" />
<rect x="172" y="196" width="4" height="4" fill="#FFFFFF" />
<rect x="184" y="196" width="4" height="8" fill="#272727" />
<rect x="188" y="196" width="4" height="4" fill="#363636" />
<rect x="192" y="196" width="8" height="4" fill="#C9C9C9" />
<rect x="200" y="196" width="4" height="8" fill="#363636" />
<rect x="204" y="196" width="4" height="8" fill="#272727" />
<rect x="208" y="196" width="4" height="8" fill="#000000" />
<rect x="108" y="200" width="8" height="4" fill="#000000" />
<rect x="124" y="200" width="4" height="4" fill="#F0F0F0" />
<rect x="132" y="200" width="12" height="4" fill="#F0F0F0" />
<rect x="144" y="200" width="4" height="8" fill="#363636" />
<rect x="152" y="200" width="8" height="16" fill="#868686" />
<rect x="176" y="200" width="4" height="12" fill="#FFFFFF" />
<rect x="180" y="200" width="4" height="12" fill="#000000" />
<rect x="188" y="200" width="4" height="4" fill="#C9C9C9" />
<rect x="192" y="200" width="8" height="8" fill="#F0F0F0" />
<rect x="84" y="204" width="4" height="12" fill="#FFFFFF" />
<rect x="88" y="204" width="4" height="12" fill="#0A0A0A" />
<rect x="92" y="204" width="8" height="4" fill="#000000" />
<rect x="100" y="204" width="4" height="8" fill="#868686" />
<rect x="108" y="204" width="4" height="4" fill="#000000" />
<rect x="112" y="204" width="4" height="4" fill="#797979" />
<rect x="116" y="204" width="4" height="8" fill="#000000" />
<rect x="120" y="204" width="20" height="8" fill="#FFFFFA" />
<rect x="140" y="204" width="4" height="8" fill="#F0F0F0" />
<rect x="184" y="204" width="8" height="4" fill="#F0F0F0" />
<rect x="200" y="204" width="4" height="12" fill="#F0F0F0" />
<rect x="204" y="204" width="4" height="12" fill="#0A0A0A" />
<rect x="208" y="204" width="4" height="12" fill="#FFFFFF" />
<rect x="92" y="208" width="4" height="4" fill="#000000" />
<rect x="96" y="208" width="4" height="4" fill="#868686" />
<rect x="104" y="208" width="4" height="8" fill="#868686" />
<rect x="108" y="208" width="4" height="8" fill="#797979" />
<rect x="112" y="208" width="4" height="4" fill="#FFFFFF" />
<rect x="144" y="208" width="4" height="4" fill="#000000" />
<rect x="148" y="208" width="4" height="12" fill="#868686" />
<rect x="184" y="208" width="4" height="4" fill="#F0F0F0" />
<rect x="188" y="208" width="12" height="4" fill="#FFFFFA" />
<rect x="92" y="212" width="12" height="4" fill="#797979" />
<rect x="112" y="212" width="4" height="4" fill="#000000" />
<rect x="116" y="212" width="20" height="4" fill="#FFFFFA" />
<rect x="136" y="212" width="4" height="4" fill="#F0F0F0" />
<rect x="140" y="212" width="4" height="4" fill="#000000" />
<rect x="144" y="212" width="4" height="8" fill="#868686" />
<rect x="172" y="212" width="4" height="4" fill="#FFFFFF" />
<rect x="176" y="212" width="4" height="4" fill="#000000" />
<rect x="180" y="212" width="16" height="4" fill="#FFFFFA" />
<rect x="196" y="212" width="4" height="8" fill="#F0F0F0" />
<rect x="80" y="216" width="4" height="8" fill="#FFFFFF" />
<rect x="84" y="216" width="4" height="4" fill="#0A0A0A" />
<rect x="88" y="216" width="12" height="4" fill="#868686" />
<rect x="100" y="216" width="8" height="4" fill="#797979" />
<rect x="108" y="216" width="4" height="4" fill="#000000" />
<rect x="112" y="216" width="20" height="4" fill="#FFFFFA" />
<rect x="132" y="216" width="4" height="4" fill="#F0F0F0" />
<rect x="136" y="216" width="4" height="4" fill="#000000" />
<rect x="140" y="216" width="4" height="4" fill="#956563" />
<rect x="152" y="216" width="8" height="4" fill="#0A0A0A" />
<rect x="160" y="216" width="4" height="4" fill="#FFFFFF" />
<rect x="168" y="216" width="4" height="4" fill="#FFFFFF" />
<rect x="172" y="216" width="4" height="8" fill="#000000" />
<rect x="176" y="216" width="12" height="4" fill="#FFF2EF" />
<rect x="188" y="216" width="8" height="4" fill="#FFFFFA" />
<rect x="200" y="216" width="4" height="8" fill="#0A0A0A" />
<rect x="204" y="216" width="4" height="8" fill="#FFFFFF" />
<rect x="84" y="220" width="4" height="4" fill="#000000" />
<rect x="88" y="220" width="4" height="4" fill="#977F82" />
<rect x="92" y="220" width="12" height="4" fill="#868686" />
<rect x="104" y="220" width="4" height="4" fill="#000000" />
<rect x="108" y="220" width="16" height="4" fill="#FFF2EF" />
<rect x="124" y="220" width="8" height="4" fill="#C9C9C9" />
<rect x="132" y="220" width="4" height="4" fill="#000000" />
<rect x="136" y="220" width="16" height="4" fill="#0A0A0A" />
<rect x="152" y="220" width="8" height="4" fill="#FFFFFF" />
<rect x="164" y="220" width="4" height="8" fill="#FFFFFF" />
<rect x="168" y="220" width="4" height="8" fill="#0A0A0A" />
<rect x="176" y="220" width="4" height="4" fill="#FFC8DB" />
<rect x="180" y="220" width="4" height="4" fill="#000000" />
<rect x="184" y="220" width="4" height="4" fill="#F4B4C1" />
<rect x="188" y="220" width="8" height="4" fill="#C9C9C9" />
<rect x="196" y="220" width="4" height="4" fill="#0A0A0A" />
<rect x="76" y="224" width="4" height="8" fill="#FFFFFF" />
<rect x="80" y="224" width="4" height="8" fill="#0A0A0A" />
<rect x="84" y="224" width="4" height="4" fill="#996D72" />
<rect x="88" y="224" width="4" height="4" fill="#000000" />
<rect x="92" y="224" width="4" height="4" fill="#92796E" />
<rect x="96" y="224" width="4" height="4" fill="#8F5D56" />
<rect x="100" y="224" width="4" height="8" fill="#000000" />
<rect x="104" y="224" width="4" height="4" fill="#F4B4C1" />
<rect x="108" y="224" width="4" height="4" fill="#000000" />
<rect x="112" y="224" width="4" height="4" fill="#F4B4C1" />
<rect x="116" y="224" width="4" height="4" fill="#000000" />
<rect x="120" y="224" width="4" height="4" fill="#F4B4C1" />
<rect x="124" y="224" width="4" height="4" fill="#E5A1A3" />
<rect x="128" y="224" width="4" height="4" fill="#0A0A0A" />
<rect x="132" y="224" width="20" height="4" fill="#FFFFFF" />
<rect x="172" y="224" width="24" height="4" fill="#0A0A0A" />
<rect x="196" y="224" width="8" height="4" fill="#FFFFFF" />
<rect x="84" y="228" width="16" height="4" fill="#0A0A0A" />
<rect x="104" y="228" width="4" height="4" fill="#000000" />
<rect x="108" y="228" width="20" height="4" fill="#0A0A0A" />
<rect x="128" y="228" width="4" height="4" fill="#FFFFFF" />
<rect x="168" y="228" width="28" height="4" fill="#FFFFFF" />
<rect x="80" y="232" width="48" height="4" fill="#FFFFFF" />
</svg>