<svg clip-rule="evenodd" fill-rule="evenodd" stroke-linejoin="round" stroke-miterlimit="2" viewBox="0 0 544 544" xmlns="http://www.w3.org/2000/svg"><g fill-rule="nonzero"><path d="m543.163 494.4c0 26.817-21.946 48.771-48.775 48.771h-445.617c-26.821 0-48.771-21.958-48.771-48.771v-445.629c0-26.825 21.95-48.771 48.771-48.771h445.621c26.829 0 48.775 21.95 48.775 48.771v445.629z" fill="#800000"/><path d="m417.404 195.417c-2.229-11.275-7.279-22.996-15.183-35.13-9.696-14.908-20.992-24.829-33.875-29.77-12.896-4.946-27.246-5.313-43.038-1.1 6.675-11.634 9.759-23.825 9.275-36.575-.491-12.75-4.479-24.888-11.979-36.417-12.221-18.787-28.121-29.329-47.7-31.642-19.575-2.308-40.987 4.092-64.25 19.234l-86.4 56.2 9.296 14.291 2.917-1.891c5.821-3.792 10.837-5.825 15.058-6.15 4.208-.313 8.375 1.004 12.496 3.937 4.129 2.946 8.45 7.571 12.979 13.879 4.525 6.325 9.983 14.396 16.371 24.209l26.908 41.371-31.187 20.337c-25.804 17.092-40.667 37.546-44.604 61.358-3.934 23.809 2.504 48.621 19.291 74.43l58.921 90.9c6.383 9.812 11.55 18.066 15.504 24.754 3.95 6.687 6.475 12.483 7.567 17.408 1.079 4.908.696 9.171-1.15 12.808-1.867 3.63-5.567 7.259-11.125 10.88l-2.158 2.758 8.679 13.346 83.191-54.117-9.645-14.829-7.775 5.054c-4.496 3.229-8.625 4.696-12.367 4.421-3.763-.3-7.583-2.221-11.467-5.754-3.891-3.559-8.046-8.521-12.458-14.909-4.421-6.379-9.467-13.966-15.158-22.695l-26.875-41.634 53.095-34.541.017.029 95.875-62.359c10.283-6.7 18.913-14.275 25.846-22.729 6.954-8.458 11.762-17.65 14.429-27.571 2.675-9.908 2.9-20.508.679-31.791zm-213.487-112.621c1.187-4.113 5.571-8.642 13.158-13.579 17.692-11.509 32.342-16.638 43.954-15.384 11.609 1.259 22.275 9.359 31.992 24.288 5.129 7.896 8.467 15.367 10.012 22.412 1.542 7.059 1.109 13.942-1.3 20.663-2.408 6.721-6.891 13.442-13.458 20.142-6.571 6.7-15.4 13.65-26.479 20.862-2.913 1.892-5.092 3.017-6.538 3.346-1.445.329-3.12-.546-5.041-2.646l-23.317-35.85c-6.804-10.454-12.25-19.133-16.321-26.046-4.083-6.9-6.304-12.979-6.662-18.208zm14.25 277.325-29.204-44.913c-6.775-10.42-11.05-20.116-12.809-29.12-1.762-8.992-1.791-17.142-.087-24.459 1.7-7.308 4.866-13.692 9.504-19.125 4.629-5.442 9.825-10.037 15.571-13.775l31.187-20.333 31.821 48.921c6.392 9.816 11.55 18.083 15.492 24.775 3.937 6.7 6.371 12.554 7.291 17.579.917 5.025.134 9.558-2.345 13.604-2.484 4.042-6.93 8.137-13.325 12.3v.004zm166.866-129.496c-1.112 6.796-3.954 13.346-8.541 19.675-4.596 6.333-10.971 12.758-19.15 19.292-6.409 4.166-11.967 6.57-16.667 7.204-4.7.621-9.204-.463-13.525-3.275-4.312-2.809-8.729-7.375-13.246-13.688-4.537-6.312-9.983-14.387-16.375-24.208l-30.808-47.35c-.725-1.954-.584-3.646.429-5.063 1.008-1.412 3.167-3.204 6.479-5.354 12.225-7.958 23.221-13.658 32.983-17.129 9.763-3.462 18.575-4.792 26.421-3.983 7.85.812 14.913 3.504 21.2 8.066 6.288 4.567 11.992 10.788 17.129 18.684 5.446 9.221 9.363 17.683 11.746 25.383 2.388 7.704 3.03 14.95 1.925 21.746z" fill="#fff"/></g></svg>