<?xml version="1.0" encoding="UTF-8" standalone="no"?>
<!DOCTYPE svg PUBLIC "-//W3C//DTD SVG 1.1//EN" "http://www.w3.org/Graphics/SVG/1.1/DTD/svg11.dtd">
<svg width="100%" height="100%" viewBox="0 0 100 100" version="1.1" xmlns="http://www.w3.org/2000/svg" xmlns:xlink="http://www.w3.org/1999/xlink" xml:space="preserve" xmlns:serif="http://www.serif.com/" style="fill-rule:evenodd;clip-rule:evenodd;stroke-linejoin:round;stroke-miterlimit:2;">
    <path d="M100,10C100,4.481 95.519,0 90,0L10,0C4.481,0 0,4.481 0,10L0,90C0,95.519 4.481,100 10,100L90,100C95.519,100 100,95.519 100,90L100,10Z" style="fill:rgb(34,32,60);"/>
    <g>
        <g transform="matrix(0.0635223,0,0,-0.0635223,16.6553,108.619)">
            <path d="M799,1477C741,1438 735,1362 786,1315C822,1282 862,1275 904,1295C980,1331 987,1438 917,1480C875,1506 841,1505 799,1477Z" style="fill:white;fill-rule:nonzero;"/>
        </g>
        <g transform="matrix(0.0635223,0,0,-0.0635223,16.6553,108.619)">
            <path d="M285,1367C186,1319 126,1223 127,1115C128,992 194,920 380,840C505,785 549,755 567,713C597,640 557,545 479,504C443,486 357,486 321,504C282,525 233,583 225,619C221,636 216,650 214,650C211,650 180,643 145,634C83,618 80,617 87,591C109,497 202,394 293,364C364,340 463,341 522,368C670,433 753,607 705,750C677,834 622,881 462,957C293,1037 270,1057 270,1121C270,1262 478,1302 537,1173C547,1152 555,1134 556,1132C557,1130 587,1137 624,1146C684,1161 690,1165 684,1184C659,1266 620,1317 552,1357C514,1379 492,1385 421,1388C346,1391 329,1388 285,1367Z" style="fill:white;fill-rule:nonzero;"/>
        </g>
    </g>
</svg>
