<svg width="100" height="100" viewBox="0 0 100 100" fill="none" xmlns="http://www.w3.org/2000/svg">
<rect width="100" height="100" rx="10" fill="white"/>
<circle cx="50.5" cy="50.5" r="37.5" fill="#E9E9E9"/>
<path fill-rule="evenodd" clip-rule="evenodd" d="M73.7384 21.0663C71.1142 18.9916 68.2059 17.2604 65.0815 15.9405L87.7153 55.1435C87.9032 53.622 88 52.0723 88 50.5C88 48.6662 87.8684 46.863 87.614 45.0996L73.7384 21.0663ZM50.5 13C51.8109 13 53.1061 13.0673 54.3823 13.1985L84.7491 65.7953C83.957 67.5663 83.0316 69.2645 81.9857 70.8773L48.5975 13.0474C49.2277 13.0159 49.862 13 50.5 13ZM40.2696 14.4125C38.6479 14.8713 37.0708 15.4365 35.5464 16.1001L72.8108 80.6439C74.1567 79.6461 75.4335 78.5603 76.6326 77.395L40.2696 14.4125ZM24.8174 23.1748C26.0319 22.033 27.3224 20.9712 28.6807 19.9978L66.0092 84.6526C64.4997 85.3392 62.9366 85.9287 61.328 86.413L24.8174 23.1748ZM19.3872 29.5589C18.3241 31.1352 17.3777 32.7967 16.5603 34.531L47.3556 87.87C48.3924 87.9561 49.441 88 50.5 88C51.3665 88 52.2261 87.9706 53.0778 87.9128L19.3872 29.5589ZM13 50.5C13 48.5895 13.1429 46.7124 13.4185 44.8787L36.8314 85.431C33.8504 84.2636 31.0554 82.7257 28.5028 80.8739L13.1965 54.3626C13.0666 53.0928 13 51.8042 13 50.5Z" fill="#1B3F63"/>
</svg>
