<?xml version="1.0" encoding="UTF-8" standalone="no"?><!DOCTYPE svg PUBLIC "-//W3C//DTD SVG 1.1//EN" "http://www.w3.org/Graphics/SVG/1.1/DTD/svg11.dtd"><svg width="100%" height="100%" viewBox="0 0 501 501" version="1.1" xmlns="http://www.w3.org/2000/svg" xmlns:xlink="http://www.w3.org/1999/xlink" xml:space="preserve" xmlns:serif="http://www.serif.com/" style="fill-rule:evenodd;clip-rule:evenodd;stroke-linecap:round;stroke-linejoin:round;stroke-miterlimit:1.5;"><rect id="Error" x="0.5" y="0.44" width="500" height="500" style="fill:none;"/><g id="Symbol-Square-Default" serif:id="Symbol Square Default"><path id="Head" d="M480.5,135.061c-0,-63.261 -51.36,-114.621 -114.621,-114.621l-230.758,-0c-63.261,-0 -114.621,51.36 -114.621,114.621l-0,230.758c-0,63.261 51.36,114.621 114.621,114.621l230.758,-0c63.261,-0 114.621,-51.36 114.621,-114.621l-0,-230.758Z" style="fill:#ff1c01;stroke:#181818;stroke-width:14.85px;"/><g id="Eyes"><path id="Left-eye" serif:id="Left eye" d="M184.617,204.59l3.947,3.947c9.008,9.008 9.008,23.634 0,32.642c-9.008,9.007 -23.634,9.007 -32.641,-0l-43.522,-43.522c-9.008,-9.008 -9.008,-23.634 -0,-32.642c9.007,-9.007 23.634,-9.007 32.641,0l11.012,11.012l-0.469,16.176c-0.184,6.367 4.835,11.686 11.202,11.87l17.83,0.517Z" style="fill:#191919;"/><path id="Left-eye1" serif:id="Left eye" d="M116.348,204.59l-3.947,3.947c-9.008,9.008 -9.008,23.634 -0,32.642c9.007,9.007 23.634,9.007 32.641,-0l43.522,-43.522c9.008,-9.008 9.008,-23.634 0,-32.642c-9.008,-9.007 -23.634,-9.007 -32.641,0l-11.012,11.012l0.469,16.176c0.184,6.367 -4.835,11.686 -11.202,11.87l-17.83,0.517Z" style="fill:#191919;"/><path id="Right-eye" serif:id="Right eye" d="M384.652,204.59l3.947,3.947c9.008,9.008 9.008,23.634 0,32.642c-9.007,9.007 -23.634,9.007 -32.641,-0l-43.522,-43.522c-9.008,-9.008 -9.008,-23.634 -0,-32.642c9.008,-9.007 23.634,-9.007 32.641,0l11.012,11.012l-0.469,16.176c-0.184,6.367 4.835,11.686 11.202,11.87l17.83,0.517Z" style="fill:#191919;"/><path id="Right-eye1" serif:id="Right eye" d="M316.383,204.59l-3.947,3.947c-9.008,9.008 -9.008,23.634 -0,32.642c9.008,9.007 23.634,9.007 32.641,-0l43.522,-43.522c9.008,-9.008 9.008,-23.634 0,-32.642c-9.007,-9.007 -23.634,-9.007 -32.641,0l-11.012,11.012l0.469,16.176c0.184,6.367 -4.835,11.686 -11.202,11.87l-17.83,0.517Z" style="fill:#191919;"/></g><path id="Mouth" d="M373.599,351.638c-0,0 -120.596,-102.876 -246.198,0" style="fill:none;stroke:#181818;stroke-width:27px;"/></g></svg>