<svg clip-rule="evenodd" fill-rule="evenodd" stroke-linecap="round" stroke-linejoin="round" stroke-miterlimit="1.5" viewBox="0 0 501 501" xmlns="http://www.w3.org/2000/svg"><path d="m.5.44h500v500h-500z" fill="none"/><path d="m480.5 135.061c0-63.261-51.36-114.621-114.621-114.621h-230.758c-63.261 0-114.621 51.36-114.621 114.621v230.758c0 63.261 51.36 114.621 114.621 114.621h230.758c63.261 0 114.621-51.36 114.621-114.621z" fill="#ff1c01" stroke="#181818" stroke-width="14.85"/><g fill="#191919"><path d="m184.617 204.59 3.947 3.947c9.008 9.008 9.008 23.634 0 32.642-9.008 9.007-23.634 9.007-32.641 0l-43.522-43.522c-9.008-9.008-9.008-23.634 0-32.642 9.007-9.007 23.634-9.007 32.641 0l11.012 11.012-.469 16.176c-.184 6.367 4.835 11.686 11.202 11.87z"/><path d="m116.348 204.59-3.947 3.947c-9.008 9.008-9.008 23.634 0 32.642 9.007 9.007 23.634 9.007 32.641 0l43.522-43.522c9.008-9.008 9.008-23.634 0-32.642-9.008-9.007-23.634-9.007-32.641 0l-11.012 11.012.469 16.176c.184 6.367-4.835 11.686-11.202 11.87z"/><path d="m384.652 204.59 3.947 3.947c9.008 9.008 9.008 23.634 0 32.642-9.007 9.007-23.634 9.007-32.641 0l-43.522-43.522c-9.008-9.008-9.008-23.634 0-32.642 9.008-9.007 23.634-9.007 32.641 0l11.012 11.012-.469 16.176c-.184 6.367 4.835 11.686 11.202 11.87z"/><path d="m316.383 204.59-3.947 3.947c-9.008 9.008-9.008 23.634 0 32.642 9.008 9.007 23.634 9.007 32.641 0l43.522-43.522c9.008-9.008 9.008-23.634 0-32.642-9.007-9.007-23.634-9.007-32.641 0l-11.012 11.012.469 16.176c.184 6.367-4.835 11.686-11.202 11.87z"/></g><path d="m373.599 351.638s-120.596-102.876-246.198 0" fill="none" stroke="#181818" stroke-width="27"/></svg>