<svg clip-rule="evenodd" fill-rule="evenodd" stroke-linecap="round" stroke-linejoin="round" stroke-miterlimit="1.5" viewBox="0 0 461 460" xmlns="http://www.w3.org/2000/svg"><g transform="matrix(2.55556 0 0 2.70893 -789.167 -73.6601)"><path d="m309 27.192h180v169.808h-180z" fill="none"/><g transform="matrix(2.39635529 0 0 2.26067543 26.867055 -81.663965)"><circle cx="155.291" cy="85.709" fill="#0098fd" r="34.291"/><path d="m155.291 51.418c18.926 0 34.291 15.365 34.291 34.291s-15.365 34.291-34.291 34.291-34.291-15.365-34.291-34.291 15.365-34.291 34.291-34.291zm0 2.414c17.593 0 31.877 14.284 31.877 31.877s-14.284 31.876-31.877 31.876-31.876-14.283-31.876-31.876 14.283-31.877 31.876-31.877z" fill="#181818"/></g><path d="m213.674 668.274v.726c0 1.656-1.344 3-3 3s-3-1.344-3-3v-8c0-1.656 1.344-3 3-3s3 1.344 3 3v2.024l-1.53 1.444c-.602.568-.63 1.518-.061 2.12z" fill="#191919" transform="matrix(2.7487775 0 0 2.59314375 -215.828332 -1628.301154)"/><path d="m213.674 668.274v.726c0 1.656-1.344 3-3 3s-3-1.344-3-3v-8c0-1.656 1.344-3 3-3s3 1.344 3 3v2.024l-1.53 1.444c-.602.568-.63 1.518-.061 2.12z" fill="#191919" transform="matrix(2.7487775 0 0 2.59314375 -144.360227 -1628.301154)"/><path d="m248.674 688s-20.083 20.917-41 0" fill="none" stroke="#181818" stroke-width="4.92" transform="matrix(2.1453867 0 0 1.65772747 -90.520906 -1009.722271)"/></g></svg>