<svg clip-rule="evenodd" fill-rule="evenodd" stroke-linejoin="round" stroke-miterlimit="2" viewBox="0 0 834 175" xmlns="http://www.w3.org/2000/svg" xmlns:xlink="http://www.w3.org/1999/xlink"><clipPath id="a"><path clip-rule="evenodd" d="m0 0h833.333v175h-833.333z"/></clipPath><path d="m0 0h833.333v175h-833.333z" fill="none"/><g clip-path="url(#a)"><path d="m0 .159h833.333v174.682h-833.333z" fill="#fff"/><path d="m410.95-.723h-410.95v176.446h410.95v-176.446zm-159.847 73.424c6.636-27.792 30.865-48.787 60.24-50.539v33.133c-16.344 1.97-29.028 15.902-29.028 32.774s12.684 30.805 29.028 32.774v33.133c-29.773-1.775-54.26-23.319-60.501-51.677h-30.137v-29.598zm68.209-50.539c34.587 2.063 62.041 30.804 62.041 65.907s-27.454 63.845-62.041 65.907v-33.133c16.344-1.969 29.028-15.902 29.028-32.774s-12.684-30.804-29.028-32.774v-33.133zm-241.903 2.159h-33.013v127.497h33.013zm56.211 0h-33.012v127.497h33.012zm78.548 0h-33.013v127.497h33.013zm-39.448 56.918-31.543-40.981v53.503l31.543 40.981zm80.998-29.598v-27.32h-33.013v27.32z"/><path d="m422.452 165.478h410.881v10.245h-410.881z"/><path d="m422.452-.723h410.881v10.245h-410.881z"/><path d="m551.249 115.39h-26.474c-8.299 9.688-20.748 15.519-34.139 15.519-24.461 0-44.319-19.196-44.319-42.84s19.858-42.839 44.319-42.839c13.418 0 25.856 5.85 34.139 15.518h27.91c-11.046-23.451-35.279-38.586-62.049-38.586-37.632 0-68.184 29.532-68.184 65.907s30.552 65.907 68.184 65.907c26.498 0 50.596-14.84 61.795-38.053z"/><path d="m621.548 24.321 47.811 127.497h-27.32l-13.307-35.484h-43.966l-13.306 35.484h-27.321l47.811-127.497zm-14.799 33.392-13.977 37.272h27.954z"/><path d="m721.281 24.337c21.449 2.839 38.009 21.333 38.009 43.242 0 19.489-13.104 35.986-31.095 41.388l31.095 42.851h-29.597l-36.76-50.658h-.375v50.658h-24.337v-127.497h52.934l.126.016zm-28.723 23.889h28.597l.095.029c8.049 2.464 13.903 10.586 13.903 19.324 0 8.772-5.9 17.492-13.998 19.921h-28.597z"/><path d="m766.69 24.321h23.337v127.497h-23.337z"/><path d="m833.333 98.247v-21.494h-66.643v21.494z"/><path d="m833.333 151.818v-21.494h-66.643v21.494z"/><path d="m833.333 45.815v-21.494h-66.643v21.494z"/></g></svg>