<svg width="100%" height="100%" viewBox="0 0 460 460" version="1.1" xmlns="http://www.w3.org/2000/svg" xmlns:xlink="http://www.w3.org/1999/xlink" xml:space="preserve" xmlns:serif="http://www.serif.com/" style="fill-rule: evenodd; clip-rule: evenodd; stroke-linecap: round; stroke-linejoin: round; stroke-miterlimit: 1.5">
    <rect id="Default" x="0" y="0" width="460" height="460" style="fill: none" />
    <g id="th-symbol">
        <g id="headshape">
            <circle id="head-outline" cx="230" cy="230" r="210" />
            <circle id="head" cx="230" cy="230" r="195" />
        </g>
        <g id="eyes">
            <path id="eye-left" d="M159.754,209.775l-0,5.097c-0,11.632 -9.443,21.074 -21.074,21.074c-11.631,0 -21.074,-9.442 -21.074,-21.074l-0,-56.197c-0,-11.631 9.443,-21.074 21.074,-21.074c11.631,0 21.074,9.443 21.074,21.074l-0,14.219l-10.747,10.141c-4.229,3.992 -4.423,10.666 -0.431,14.895l11.178,11.845Z" />
            <path id="eye-right" d="M342.394,209.775l0,5.097c0,11.632 -9.443,21.074 -21.074,21.074c-11.631,0 -21.074,-9.442 -21.074,-21.074l0,-56.197c0,-11.631 9.443,-21.074 21.074,-21.074c11.631,0 21.074,9.443 21.074,21.074l0,14.219l-10.746,10.141c-4.229,3.992 -4.423,10.666 -0.431,14.895l11.177,11.845Z" />
        </g>
        <path id="mouth" d="M342.394,280.652c0,-0 -110.109,93.93 -224.788,-0" style="fill: none; stroke-width: 24.65px" />
    </g>
</svg>
