<svg width="60" height="60" viewBox="0 0 60 60" fill="none" xmlns="http://www.w3.org/2000/svg">
<circle cx="30" cy="30" r="30" fill="white"/>
<path d="M35.354 44.56C40.604 44.56 43.04 41.452 43.04 36.202V16.462H39.092V36.916C39.092 39.52 37.832 41.41 35.27 41.41C32.834 41.41 31.994 39.436 31.994 36.916V24.4C31.994 19.234 29.894 16 24.98 16C19.898 16 17 18.772 17 24.4V44.098H20.948V23.686C20.948 21.124 22.166 19.192 24.77 19.192C27.206 19.192 28.046 21.166 28.046 23.686V36.202C28.046 41.578 30.104 44.56 35.354 44.56Z" fill="black"/>
</svg>

