<svg clip-rule="evenodd" fill-rule="evenodd" stroke-linejoin="round" stroke-miterlimit="2" viewBox="0 0 1667 1667" xmlns="http://www.w3.org/2000/svg" xmlns:xlink="http://www.w3.org/1999/xlink"><clipPath id="a"><path clip-rule="evenodd" d="m0 0h1666.67v1666.67h-1666.67z"/></clipPath><path d="m0 0h1666.67v1666.67h-1666.67z" fill="none"/><g clip-path="url(#a)"><path d="m1666.67 166.667c0-91.986-74.681-166.667-166.667-166.667h-1333.33c-91.986 0-166.667 74.681-166.667 166.667v1333.33c0 91.986 74.681 166.667 166.667 166.667h1333.33c91.986 0 166.667-74.681 166.667-166.667z" fill="#fff"/><path d="m833.285 216.667c374.842 0 679.166 304.324 679.166 679.166 0 374.843-304.324 679.167-679.166 679.167-374.843 0-679.167-304.324-679.167-679.167 0-374.842 304.324-679.166 679.167-679.166zm0 170.833c280.556 0 508.333 227.777 508.333 508.333 0 280.557-227.777 508.334-508.333 508.334-280.557 0-508.334-227.777-508.334-508.334 0-280.556 227.777-508.333 508.334-508.333z"/><path d="m1531.13 689.583c-77.468-313.297-360.706-545.897-697.842-545.897-337.137 0-620.375 232.6-697.843 545.897h50.611v412.5s-80.732 0-113.638-.009c-7.995 0-14.868-5.666-16.392-13.514-24.687-128.933-24.586-257.484.024-385.658 1.507-7.736 8.284-13.319 16.165-13.319h9.745c78.561-342.281 385.326-597.916 751.328-597.916 366.001 0 672.767 255.635 751.327 597.916h9.843c7.881 0 14.657 5.583 16.165 13.319 24.61 128.174 24.711 256.725.023 385.658-1.524 7.848-8.397 13.514-16.391 13.514-32.906.009-113.639.009-113.639.009v-412.5z"/><path d="m1101.55 727.601c30.656 48.744 48.397 106.433 48.397 168.232 0 174.773-141.893 316.667-316.666 316.667s-316.667-141.894-316.667-316.667 141.894-316.666 316.667-316.666c36.65 0 71.854 6.239 104.607 17.715-30.346 19.683-50.441 53.864-50.441 92.701 0 60.941 49.476 110.417 110.417 110.417 47.582 0 88.175-30.163 103.686-72.399z"/></g></svg>