<svg clip-rule="evenodd" fill-rule="evenodd" stroke-linejoin="round" stroke-miterlimit="2" viewBox="0 0 414 414" xmlns="http://www.w3.org/2000/svg"><g fill-rule="nonzero"><path d="m0 41.667c0-11.051 4.39-21.649 12.204-29.463s18.412-12.204 29.463-12.204h330c11.05 0 21.648 4.39 29.462 12.204s12.204 18.412 12.204 29.463v330c0 11.05-4.39 21.648-12.204 29.462s-18.412 12.204-29.462 12.204h-330c-11.051 0-21.649-4.39-29.463-12.204s-12.204-18.412-12.204-29.462v-330z" fill="#c7433f"/><g fill="#fff"><path d="m85.417 175.417c-2.5-.417-7.5-1.25-9.167-.834-.417.417-.833.834-1.25 2.084v.833c-.417.417-.833 0-.833-.417.416-1.666.833-3.333.833-5 .417-1.666.417-2.916.833-4.583.417-.417.834 0 1.25 0v1.25c0 1.25 0 2.083.834 2.5 1.25.833 6.25 1.667 8.75 2.083l5 .834c3.75.833 7.5 2.083 9.583 5 1.667 2.083 2.083 5.416 1.667 8.75-.417 2.916-1.667 5.833-3.75 7.5-2.084 2.083-5.417 2.5-10.834 1.666l-10-1.666c-4.583-.834-5.416-.834-5.833 1.666l-.417 1.25c-.416.417-.833 0-.833-.416.417-2.084.833-3.75 1.25-5.417s.417-3.333.833-5.417c0-.416.834 0 1.25 0v1.25c-.416 2.5.417 2.917 5 3.334l9.167 1.666c7.083 1.25 11.667 0 12.917-6.666 1.25-6.25-3.334-9.584-10-10.417z"/><path d="m112.917 140.417c1.25.833 5.833 3.333 6.666 3.75 0 0 .417.416 0 .833-.833 0-2.916.417-8.333 1.667l-15.417 3.333c-1.666.417-6.25 1.25-7.5 1.667.417.416 1.25.833 2.5 1.666l8.334 4.584c1.666.833 6.666 3.75 8.333 3.75.417 0 1.25-.834 1.667-1.667l.833-1.25c.417 0 .833.417.833.417-.833 1.666-1.666 2.916-2.5 4.583-.833 1.667-1.25 2.5-2.083 4.167-.417 0-.833 0-.833-.417l.416-1.25c.417-.833.417-1.667 0-2.083-1.25-1.25-5.833-3.75-7.5-5l-10.833-6.25c-1.25-.417-2.083-.834-3.333-.834-.834.417-1.667.834-2.084 1.667l-.416.417c-.417 0-.834-.417-.834-.417.834-1.667 2.084-3.75 2.5-4.167.417-.416.834-1.25.834-1.666 2.5.416 10-1.25 12.083-1.667l6.25-1.25c4.583-.833 7.5-1.667 10.417-2.5 0-.417-.834-.417-1.667-1.25l-8.333-4.583c-1.667-.834-6.667-3.75-8.334-3.75-.416 0-.833.416-2.083 2.083l-.833.833c-.417 0-.834-.416-.834-.416 1.25-1.667 1.667-2.917 2.5-4.584l2.084-4.166c.416 0 .833 0 .833.416l-.417.417c0 1.667 0 2.5.417 2.917.833 1.25 5.833 4.166 7.5 5z"/><path d="m112.5 118.333c-3.333-3.333-3.75-3.75-5.833-2.083l-.834.833c-.416 0-.833-.416-.833-.833l3.75-3.75c1.25-1.25 2.083-2.5 3.75-4.167.417 0 .833.417.833.834l-.833.833c-1.667 2.083-1.25 2.5 2.083 5.833l11.25 10.834c3.334 3.333 3.75 3.75 5.834 2.083l.833-.833c.417 0 .833.416.833.833-1.666 1.667-2.5 2.5-3.75 3.75s-2.083 2.5-3.75 4.167c-.416 0-.833-.417-.833-.834l.833-.833c1.667-2.083 1.25-2.5-2.083-5.833z"/><path d="m127.917 101.25c-2.084-1.667-3.334-2.083-5-1.25l-.834.417c-.416 0-.833-.417-.416-.834 1.25-.416 2.5-1.25 3.75-2.5 1.666-.833 2.916-2.083 4.583-2.916.417 0 .833.416.833.833l-.416.417c-1.25 1.25-1.25 1.666-1.25 2.083.416.417 2.083 2.083 5 4.167 4.583 3.333 8.75 6.25 13.333 9.583-.417-3.333-1.25-7.917-1.667-10.417-.416-3.333-1.25-8.333-1.666-10.416 0-.834-.417-1.25-.417-1.667s-.833-.417-2.083.417l-.834.416c-.416 0-.833-.833-.416-.833 1.25-.417 2.5-1.25 3.75-2.5 1.25-.833 2.5-1.667 3.333-2.5.417 0 .833.417.833.833l-1.25.834c-.833.833-1.25 1.25-1.25 2.5 0 2.5.417 6.25 1.25 11.25l.834 5.833c.833 4.167 1.666 9.583 2.083 12.083 0 0 0 .417-.417.417 0 0-.416 0-.416.417-1.25-1.25-3.334-2.5-5-3.75z"/><path d="m164.583 84.167c-1.25-4.167-1.666-5-4.166-4.584h-.834c-.416 0-.416-.833-.416-1.25 1.666-.416 3.333-.833 5-1.25l7.916-2.083c2.5-.833 5-1.667 5.834-1.667.416.834 1.666 3.75 2.083 5.417 0 .417-.833.417-.833.417-1.25-1.667-2.084-3.334-4.167-2.917-.833 0-2.5.417-4.167.833l-2.916.834c-1.25.416-1.25.416-.834 2.083l2.5 8.333c.417 1.25.417 1.25 1.667.834l2.5-.834c1.667-.416 2.917-.833 3.333-1.25.417-.416.834-.833.417-1.666v-1.667c0-.417.833-.417 1.25-.417.417.834.417 2.5.833 4.167.417 1.667 1.25 2.917 1.25 4.167 0 .416-.833.416-1.25.416l-.416-1.666c-.417-.834-.834-1.25-1.667-1.25s-1.667.416-3.333.833l-2.5.833c-1.25.417-1.25.417-1.25 1.667l1.666 5.833c.834 2.084 1.25 3.75 2.084 4.167.833.417 1.666.417 5.416-.417 3.334-.833 4.584-1.25 5-2.083.834-.833 1.25-2.5 1.667-5 .417-.417.833-.417 1.25 0 0 1.667 0 5-.417 6.25-3.75.833-7.5 2.083-11.25 2.917l-3.75 1.25c-1.666.416-3.333.833-5.833 1.666-.417 0-.417-.833-.417-.833l1.25-.417c2.5-.833 2.5-1.666 1.25-5.833z"/><path d="m199.167 77.5c0-4.167 0-5-2.084-5h-1.25c-.416-.417-.416-.833 0-1.25 2.5 0 5.417-.417 9.584-.417 2.916 0 5.416.417 7.083 1.25 2.083 1.25 3.75 2.917 3.75 6.25 0 4.167-3.333 6.25-5.417 7.084-.416.416 0 .833.417 1.25 3.333 5.833 5.833 9.166 8.75 11.666.833.834 1.667 1.25 2.917 1.25.416 0 .416.417 0 .417-.417 0-1.25.417-2.084 0-3.75 0-5.833-1.25-9.166-5.417-1.25-1.666-2.917-4.583-4.167-6.666-.833-.834-1.25-1.25-2.917-1.25-2.083 0-2.083 0-2.083.833v5.417c0 4.583 0 5 2.5 5.416h.833c.417.417 0 .834 0 1.25h-10.416c-.417 0-.417-.833 0-1.25h1.25c2.5-.416 2.5-.833 2.5-5.416zm3.333-3.75v11.25s.833.417 2.917.417c1.666 0 3.333 0 4.583-1.25 1.25-.834 2.5-2.084 2.5-5 0-3.334-2.083-6.667-7.083-6.667-2.917 0-2.917 0-2.917 1.25z"/><path d="m237.917 105c-3.334-1.25-5.417-2.917-5.834-3.75-.416-1.25 0-4.167.834-6.25.416-.417.833 0 1.25 0 0 2.5.416 7.083 5 8.333 3.333 1.25 5.833-.833 6.666-3.333.417-1.667.834-4.167-1.666-7.083l-3.334-3.75c-1.666-2.084-3.333-5-2.083-8.75 1.25-4.167 5.417-6.25 10.833-4.584 1.25.417 2.917 1.25 3.75 1.667.417.417.834.417 1.25.833 0 1.25-.416 3.75-.833 5.417h-1.25c0-2.083 0-5.417-4.167-6.667-4.166-1.25-5.833 1.25-6.25 2.917-.833 2.5.834 5 2.084 6.25l2.5 3.333c2.083 2.5 3.75 5.834 2.5 9.584-1.25 5.833-5.834 7.916-11.25 5.833z"/><path d="m272.5 95.833c2.5-3.75 2.917-4.583.833-6.25l-.833-.833c0-.417.417-.833.833-.833 1.667 1.25 2.917 2.083 4.584 2.916 1.666.834 2.916 1.667 4.583 2.917 0 .417 0 .833-.417.833l-.833-.416c-2.5-1.25-2.917-.417-5 3.333l-8.333 13.333c-2.5 3.75-2.5 4.584-.417 6.25l.833.834c0 .416-.416.833-.833.833-1.667-1.25-2.917-2.083-4.583-2.917-1.667-.833-2.917-1.666-4.584-2.916 0-.417 0-.834.417-.834l.833.417c2.5 1.25 2.917.417 5-3.333z"/><path d="m291.25 130.833c-3.333 2.917-3.75 3.75-2.083 5.834l.833 1.25c0 .416-.417.833-.833.833-1.667-2.083-2.5-2.917-3.75-4.167s-2.084-2.5-4.167-4.166c0-.417.417-.834.833-.834l1.25 1.25c1.667 1.667 2.5 1.25 5.834-1.666l14.166-13.334c.834-.833.834-.833 0-2.083l-1.666-1.667c-1.25-1.25-2.917-2.916-4.584-3.333-1.25 0-2.5.417-3.75.417-.416 0-.833-.834-.416-1.25 2.083-.834 4.583-2.084 5.833-3.334l.417.417c-.834 1.25 0 2.083 1.666 3.75l12.084 12.917c1.666 1.666 2.083 2.083 3.333 1.666.417 0 .417.417.417.834-1.667.833-4.584 2.916-5.417 4.166-.417 0-.833-.416-.833-.833.833-.833 1.666-2.083 1.666-2.917 0-1.25-.833-2.5-2.5-4.583l-2.083-2.083c-.833-.834-.833-.834-2.083 0z"/><path d="m314.167 160.417c.833-.834.833-.834.416-2.084l-2.916-5.833c-.417-.833-.834-1.25-1.667-1.25l-5 .417c-2.083.416-3.333.416-3.75.833s-.417.417-.417 1.667l.417 1.25c0 .416-.833.833-.833.416-.417-1.25-.834-2.083-1.667-4.166-.417-1.25-1.25-2.5-2.083-3.75 0-.417.833-.834.833-.417l.833 1.25c.417.833 1.25 1.667 2.917 1.25 2.083 0 5.417-.417 10.417-.833l12.5-.834c1.666 0 2.5-.416 2.916-.833.834.833 1.667 1.25 2.5 1.25v.833c-1.666 1.25-2.916 2.917-4.583 4.167l-12.5 13.333c-2.917 2.917-3.333 3.75-2.5 5.417l.417 1.25c0 .417-.834.417-.834.417-.833-1.667-1.25-2.917-2.083-5-.833-2.084-1.667-3.334-2.083-4.584 0-.416.416-.833.833-.416l.833 1.25c.417.833.834 1.25 1.25 1.25.417-.417 1.25-.834 1.667-1.667zm0-9.584c-1.25 0-1.25 0-.417 1.25l2.5 5c.417 1.25.833 1.25 1.667.417l5.416-5c.834-.833 1.667-1.667 2.084-2.083h-2.917z"/><path d="m311.667 190c-.417-3.75.416-6.25.416-7.083.834-.834 3.75-1.667 5.834-2.084.416 0 .416.834.416.834-2.083.833-6.25 3.333-5.416 8.333.416 3.75 3.333 5 5.833 4.583 2.083-.416 4.167-.833 5.417-4.583l2.083-4.583c1.25-2.5 3.333-5.417 6.667-5.834 4.166-.416 7.916 2.084 8.75 7.917v5.833c-.834.417-3.334 1.25-5 1.667-.417 0-.417-.833-.417-1.25 2.083-.833 4.583-2.5 4.167-6.667-.834-4.166-3.75-4.583-5.417-4.583-2.5.417-4.167 2.917-4.583 4.583l-2.084 4.584c-1.25 2.916-3.333 5.833-7.5 6.666-4.583.417-8.333-2.5-9.166-8.333z"/><path d="m98.333 238.75c2.917-1.25 3.75-1.667 3.334-3.333l-.417-1.25c0-.417.833-.417.833-.417.834 2.083 2.084 5 3.75 8.75.834 2.5 1.667 5 1.25 7.5-.416 2.083-1.25 4.167-4.166 5-2.917 1.25-5 0-7.084-2.083-.416 0-.416.416-.416.833.416 2.5-.417 6.25-5 7.917-4.584 1.666-9.167-.417-12.084-7.917-.416-1.25-1.25-3.333-1.666-5-.834-1.667-1.25-3.333-1.667-4.583 0-.417.833-.417.833-.417l.417.833c1.25 2.084 1.667 2.084 5.833.417zm-13.75 8.75c-1.666.417-3.333 1.25-4.166 2.5-.834 1.25-.417 2.5 0 3.75 1.25 3.75 4.166 5.833 7.916 4.167 3.334-1.25 6.25-4.167 4.167-10.834-.833-2.083-1.25-2.083-2.083-2.083zm9.584-3.75c-1.25.417-1.25.417-.417 2.5 1.667 4.167 3.75 5.833 7.5 4.583 4.167-1.666 4.583-5 3.333-8.333-.416-.833-.833-1.667-.833-1.667-.417-.416-.417-.416-1.25 0z"/><path d="m111.667 269.167c3.75-2.917 4.166-3.334 2.916-5.417l-.416-.417c0-.416.833-.833.833-.416 1.25 1.666 2.083 2.916 2.917 4.166l5 6.667c1.666 2.083 3.333 4.167 3.75 4.583-.417.834-2.917 2.917-4.167 4.167-.417 0-.833-.417-.833-.833 1.25-1.667 2.083-2.917 1.25-5-.417-.834-1.25-2.084-2.5-3.75l-2.084-2.5c-.833-1.25-.833-.834-2.083 0l-6.667 4.583c-.833.833-.833.833 0 2.083l1.667 2.084c1.25 1.666 2.083 2.5 2.5 2.916.417.417.833.417 1.667 0l1.666-.833c.417 0 .834.417.834.833-.834.834-2.5 1.667-3.75 2.5-1.25.834-2.5 2.084-3.334 2.5-.416 0-.833-.416-.833-.833l1.25-1.25c.417-.417.833-1.25.417-2.083-.417-.417-.834-1.667-1.667-2.917l-1.667-2.083c-.833-1.25-.833-1.25-1.666-.417l-5 3.75c-1.667 1.25-2.917 2.5-3.334 3.333 0 .834 0 1.667 2.5 5 2.084 2.5 2.917 3.75 3.75 4.167.834.417 2.917.417 5.417 0 .417 0 .417.833.417 1.25-1.25.833-4.584 1.667-6.25 2.083-2.084-3.333-4.584-6.25-7.084-9.583l-2.5-3.333c-1.25-1.667-2.083-2.5-3.75-4.584 0-.416.417-.833.834-.833l.833 1.25c1.667 1.667 2.5 1.667 5.833-1.25z"/><path d="m132.917 293.333c2.5-3.333 2.916-4.166 1.666-5.416l-1.25-.834c0-.416.417-.833.834-.833 2.083 1.25 4.583 2.917 7.916 5.417 2.084 1.666 4.167 3.333 5 5.416 1.25 2.084 1.25 4.584-.833 7.084-2.5 3.333-6.25 3.333-8.75 2.5-.417 0-.417.416-.417.833-.416 6.667-.833 10.833.417 14.583 0 .834.833 2.084 1.667 2.917 0 0 0 .417-.417.417s-.833-.417-1.667-.834c-2.916-2.083-4.166-4.583-4.166-9.583 0-2.083.416-5.417.416-7.917 0-1.25-.416-2.083-1.666-2.916-1.667-1.25-1.667-1.25-2.084-.417l-3.333 4.583c-2.917 3.75-2.917 4.167-1.25 5.834l.833.833c0 .417-.416.833-.833.833-1.667-1.25-2.917-2.083-4.167-3.333-1.666-1.25-2.916-2.083-4.583-2.917 0-.416 0-.833.417-.833l.833.417c2.083 1.25 2.5.833 5.417-2.917zm-.834 7.084c-.416.833-.833.833-.833 1.25 0 0 .417.833 2.5 2.083 1.25.833 2.917 1.667 4.167 1.667 1.666 0 3.333-.834 5-2.917 2.083-2.917 2.083-6.667-1.667-9.583-2.083-1.667-2.5-1.667-2.917-.417z"/><path d="m177.083 335c-.416 1.667-.416 2.917 0 3.333v.417c-.416 0-1.25-.417-2.083-.417-2.5 0-5.417-.416-7.917-1.25-5-1.666-9.166-4.583-11.25-8.75-1.666-3.333-1.666-6.666-.833-10.416 1.25-3.334 3.333-6.667 7.083-8.75 3.75-2.084 8.334-2.5 14.584-.417 2.5.833 4.583 2.083 5 2.5.833.417 2.083 1.25 2.5 1.25-.417 1.25-.834 3.75-1.25 6.25-.417.417-.834 0-1.25-.417.416-5-2.5-7.5-6.667-8.75-7.917-2.5-13.333 2.084-15.417 8.334-2.5 7.916-.416 15.416 7.917 18.333 2.5.833 4.167.833 5 .417.417-.417.833-.834 1.25-2.084l.417-1.666c1.25-3.334 1.25-3.75-1.25-5l-1.667-.834c-.417-.416 0-.833.417-.833 1.25.417 3.333 1.25 5.833 2.083 1.667.417 2.917.834 4.583 1.25.417.417 0 .834-.416 1.25h-.834c-1.666-.416-2.083.834-2.916 2.917z"/><path d="m199.167 320c0-4.583 0-5-2.5-5.417h-.834c-.416 0 0-.833 0-1.25h19.167c.417.834.417 3.75.833 5.834 0 .416-.833.416-1.25 0-.833-2.084-.833-3.75-3.333-4.167-.833-.417-2.5-.417-4.167-.417h-3.333c-1.25 0-1.25 0-1.25 1.667v8.75c0 1.25 0 1.25 1.25 1.25h2.5c1.667 0 3.333 0 3.75-.417.417 0 .833-.416 1.25-1.666l.417-1.667c.416-.417.833-.417 1.25 0v8.75c0 .417-.834.417-1.25 0l-.417-1.667c0-.833-.417-1.25-1.25-1.666-.417 0-1.667-.417-3.333-.417h-2.5c-1.25 0-1.25 0-1.25 1.25v6.25c0 2.5 0 3.75.833 4.583.417.417 1.25.834 5.417.834 3.333 0 4.583 0 5.416-.834.834-.416 2.084-2.083 2.917-4.166.417-.417.833 0 1.25.416-.417 1.667-1.25 5-2.083 6.25h-21.25c-.417 0-.417-.833 0-1.25h1.25c2.5-.416 2.916-.833 2.916-5.416z"/><path d="m259.167 312.917c-.834-2.084-2.5-7.084-2.5-8.75 0-.417.833-.834 2.083-1.667l.417-.417c0-.416 0-.833-.417-.833-1.25.417-2.5.833-4.167 1.667-1.666.416-2.916 1.25-5 1.666-.416.417 0 .834.417 1.25h.833c1.667-.416 2.5-.416 2.917 0 1.25.834 3.333 6.25 4.167 8.334l3.333 8.75c.417.833.417 1.666.417 1.666-2.5-1.25-5.417-2.916-9.584-5l-6.25-3.333c-2.083-.833-8.75-4.583-10.416-6.25-.417.417-1.25.417-1.667.833-.833.417-2.917 1.25-4.583 1.667-.417.417 0 .833.416 1.25h.834c.833-.417 2.083-.417 2.916 0 1.25.417 1.667 1.667 2.084 2.5l4.583 11.667c.833 2.083 2.5 7.083 2.5 8.75 0 .416-.417.833-1.667 1.666l-1.25.417c0 .417 0 .833.417.833 1.25-.416 2.5-1.25 4.167-1.666 1.666-.417 2.916-1.25 5-1.667.416-.417 0-.833-.417-1.25l-1.25.417c-1.25.416-2.083.416-2.5 0-1.25-.834-3.333-6.25-3.75-8.334l-3.333-8.75c-.417-1.25-.834-2.083-.834-2.916 1.25.416 5.417 2.916 6.667 3.75l13.333 7.083c5 2.917 6.667 3.75 7.5 4.167.417 0 .417-.417.417-.834-.417-.833-2.5-5.833-2.917-7.083z"/><path d="m293.333 312.083c-2.916 2.5-5.416 2.917-6.25 3.334-.833-.417-3.333-2.5-5-3.75 0-.417.417-.834.834-.834 2.083 1.25 6.25 3.334 10 0 2.916-2.5 2.5-5.416.833-7.5-1.25-1.666-2.917-2.916-6.667-2.5l-5 .417c-2.5.417-6.25 0-8.333-2.917-2.5-3.333-2.5-7.916 2.083-11.666.834-.834 2.5-1.667 3.334-2.084.416-.416 1.25-.416 1.25-.833.833.417 2.916 2.083 4.166 3.75 0 .417-.416.833-.833.833-1.667-1.25-4.583-2.5-7.917 0-3.333 2.917-2.083 5.417-.833 7.084 1.667 2.083 4.583 2.083 6.25 1.666l4.167-.416c3.333-.417 7.083-.417 9.583 2.916 3.333 3.75 2.917 8.75-1.667 12.5z"/><path d="m298.333 273.75c-3.75-2.5-4.583-2.917-6.25-1.25l-.833.833c-.417 0-.833-.416-.833-.833 1.25-1.667 2.083-2.917 3.333-4.583.833-1.25 1.667-2.5 2.917-4.584.416 0 .833.417.833.417l-.417.833c-1.25 2.084-.833 2.917 2.917 5.417l12.5 9.167c3.75 2.5 4.167 2.916 6.25.833l.833-.833c.417 0 .834.416.834.833-1.25 1.667-2.084 2.917-3.334 4.167-1.25 1.666-2.083 2.916-2.916 4.583-.417 0-.834 0-.834-.417l.417-.833c1.25-2.083.833-2.5-2.917-5.417z"/><path d="m334.167 255.417c-1.25 3.333-3.334 5-3.75 5.833-1.25 0-4.167-.417-6.25-1.25-.417-.417 0-.833.416-.833 2.5 0 7.084 0 8.75-4.584 1.25-3.333-.416-5.833-2.916-7.083-1.667-.833-3.75-1.25-7.084 1.25l-4.166 2.917c-2.084 1.666-5.417 2.916-8.75 1.666-3.75-1.666-5.834-5.833-3.75-10.833.416-1.25 1.25-2.5 2.083-3.75.417-.417.833-.833.833-1.25 1.25 0 3.75.417 5.417 1.25 0 .417 0 .833-.417 1.25-2.083 0-5.416 0-6.666 3.75-1.667 4.167.833 5.833 2.916 6.667 2.5.833 5-.417 6.25-1.667l3.334-2.5c2.5-2.083 5.833-3.75 9.583-2.083 4.167 1.25 6.25 5.833 4.167 11.25z"/><path d="m206.667 59.167c-81.667 0-147.5 65.833-147.5 147.5 0 81.666 65.833 147.5 147.5 147.5 81.666 0 147.5-65.834 147.5-147.5 0-81.667-65.834-147.5-147.5-147.5zm0 290.833c-79.167 0-143.334-64.167-143.334-143.333 0-79.167 64.167-143.334 143.334-143.334 79.166 0 143.333 64.167 143.333 143.334 0 79.166-64.167 143.333-143.333 143.333z"/><path d="m241.667 278.333c-2.917 2.084-5 5.417-6.25 8.334 2.916 2.083 9.166 5 19.583 6.666 4.583-2.5 8.333-5 12.5-8.333-3.75-.833-7.5-2.917-10-4.167-4.583-2.916-10.417-7.083-15.833-2.5z"/><path d="m172.5 258.75c-3.75-.833-5.417-.833-10.833.833-9.167 2.917-23.75 19.167-23.75 19.167 4.166 4.167 9.166 7.917 14.166 11.25 4.167-5 14.584-17.083 24.584-17.083 5.416 0 8.333 2.083 12.5 5 .416-.417.833-1.25 1.25-1.667-7.917-4.583-17.917-17.5-17.917-17.5z"/><path d="m203.75 272.917c-4.583.416-7.5 4.166-9.583 7.916 8.333 5.834 15.833 12.5 26.666 15.417 8.334 2.5 11.667 3.333 20.417 3.75 3.75-1.25 7.5-2.917 11.25-5-5.417-.833-12.5-3.333-18.333-5.833-10-5-21.25-17.5-30.417-16.25z"/><path d="m178.333 277.917c-12.5 0-17.5 10.416-21.25 15 14.584 8.333 31.667 13.333 49.584 13.333 9.583 0 18.75-1.25 27.5-3.75-5.417-.417-12.5-1.667-18.334-4.167-13.75-5.833-28.333-20.416-37.5-20.416z"/><path d="m267.083 269.167c-8.333-10.417-14.583-12.5-17.916-11.667-3.334.833-2.5 3.333-6.25 7.5-3.334 4.167-11.25 8.75-12.917 9.583 1.25 1.25 2.917 3.334 3.333 3.75 3.75-3.75 9.167-7.083 13.75-7.083 8.75 0 11.25 7.083 22.917 11.25 2.5-2.083 5-4.167 7.083-6.25.417.417-5.416-.833-10-7.083z"/><path d="m247.5 183.75c-.417-.417 0-1.25-.417-1.667-.416-1.666-1.25-3.333-1.25-5.416-.416-1.25.834-1.667 1.667-2.084.417-1.25.417-2.5 0-3.333-.417-1.667-2.917-2.083-2.917-4.167 0-1.25-.833-2.5-.833-4.166-.833-2.084-.417-4.584-.833-6.667-.417-2.5-.417-5-.834-7.5-.416-2.917-.833-5.833-1.666-8.75-.417-2.5-1.25-5-2.5-7.083 0-1.667-1.667-2.917-.834-4.584 1.25-2.083 2.5-4.166 3.334-6.25.833-1.25.416-2.916.833-4.583 0-1.25.417-2.5 0-3.75h-.417c-.416 2.083-2.916 2.917-4.583 4.167-2.5.833-5 .416-7.917.833-1.666 0-2.916 1.667-5 .417-.833-.417-1.666-.834-2.916-1.25h-5.834c-2.916 0-5-1.667-7.916-1.25-3.75 0-6.667 1.666-10.417 1.25-3.333-.834-6.667.416-9.167 1.666-.833 0-2.083-.833-3.333-.833-2.917-1.25-6.667.833-8.75-1.25-1.25-1.25-2.083-2.5-2.083-4.167-.417.417-.834.834-.834 1.25-.833 1.25-1.25 2.5-1.25 3.75-.416 1.667 0 3.75.417 5.417.417 2.917 2.5 5.417 2.083 8.333-.416 1.25-1.25 2.917-1.666 4.167-1.25 1.667-.834 3.333-1.25 5.417-1.25 3.333-.417 6.666 0 10.416-1.25 4.167-1.667 8.334-2.084 12.5-.416 2.917 0 5.834-1.25 8.334-1.666 1.666-2.916 2.916-2.5 5.416 0 1.25.834 2.084 1.25 2.917.417 2.083.417 4.583 0 6.667 0 1.666-1.666 2.5-2.083 3.75-.417 1.666.833 2.5 1.667 3.333.416.833.416 2.5.833 3.333.417 2.917.833 5.417 1.25 8.334.833 4.166 1.25 8.333 2.083 12.083.834 5 2.084 9.583 3.334 14.167 1.666 3.333 2.083 7.083 3.333 10.416.833 2.917 2.5 5.417 2.5 8.334 0 .416 0 .833.417.833 0 2.083-1.667 3.333-1.25 5.417 0 0 6.25 10.833 13.333 15.416 2.917-3.333 7.083-6.25 12.5-6.25 8.75 0 16.667 8.75 25 15.417.417-.833 1.25-1.25 2.083-2.083-2.916-3.75-15-17.917-25-19.584 0 0 .834-2.083 0-2.916-.833-1.25-.833-2.084-.833-3.334 0-.416-.417-1.666 0-2.083 1.667.417 2.083 2.083 2.917 3.333h.416s.417 0 .417-.416c0-1.667 2.083-2.5 2.917-3.334.416 0 .416 0 .833.417.417 1.667 0 3.75 1.25 5 .417.417 0 .833-.417 1.25 0 1.25-.833.833-.833.833 7.5 3.75 11.667 7.917 15.833 12.917 2.917-2.083 13.334-8.75 12.917-15.417 0-2.083-1.25-2.083-1.667-3.333-.833-.833-1.666-1.667-2.083-2.917-1.25-2.083-2.083-4.583-1.667-7.5.834-2.083.834-4.166 1.667-6.25 1.25-3.75 2.083-7.5 2.917-11.25 1.25-5 2.916-10.416 3.333-15.833.833-1.667.833-3.75 1.25-5.833.833-1.667.417-4.167.833-6.25.417-1.667 0-3.334.834-4.584.416-.833 0-1.666.416-2.5 0-1.25 1.25-.833 1.25-2.083.834-.417 1.25-1.667 1.667-2.083.417-.417-1.25-1.667-2.5-2.917zm-4.583-14.583c.833.416 1.666.416 2.083 1.25.833.416.833 1.25 1.25 2.083 0 .417 0 1.25-.417 1.25-1.666 0-2.916-.833-3.75-1.667-.416-1.25.417-2.083.834-2.916zm-8.75 20.416c0 2.5 0 5.417-.417 7.5-.417.417 0 .834 0 1.25-.417 2.5 0 5.417-.417 7.917h-.416c-.834-1.25-2.917-1.667-2.917-3.333 1.25-4.167.833-9.167 1.25-13.75.417-3.75.417-7.917 0-11.667 0 0 0-.417.417-.417 1.25.417 1.666 1.667 2.916 2.084-.416 3.75-.833 6.666-.416 10.416zm-57.084-32.916c-1.25 0-1.25-1.25-1.666-2.084-.417-.416-.417-1.25-.417-1.666.417-.417.417-.834.417-1.25-.417-.417-1.25 0-1.25-.834 0-.833-.417-2.083.833-2.5.833-.416 2.083 0 3.333-.833 0 0 0-.417-.416-.417-1.25 0-2.084.417-2.917.834-.417 0-.417-.417-.417-.834 0-2.916-.416-5.416.417-7.5 0-.416-.417-1.25 0-1.666 1.25-.417 1.667 1.666 2.917 1.25-.834-.834-1.667-1.667-2.5-1.667-.417-.833 0-2.083 0-2.917.416-.416.416-.833.833-.416.833.416 1.25 1.25 2.083 1.666.417 0 .417-.416.417-.833-.833-1.25-3.333-1.25-2.083-3.333 0-.834.416-1.667 1.25-1.667.833.417 1.25 1.25 2.083 1.667h.417c-.834-.834-1.25-1.667-.834-2.5.417-.417 1.25.416 1.667.416l.833.417c.834.417 2.084.833 2.084 2.083.833 1.25.833 2.5 2.083 3.334.417.833.833 1.25 1.25 1.666-.417.417-.833.417-.833 0-.834-.416-1.25-1.666-2.084-2.5-.416 0-.416 0-.416.417.416.833.416 2.083 1.25 2.5v.833c-1.25 0-2.917-1.25-3.75-2.083 0 0-.417-.417-.834 0-.416.417 0 .833 0 .833.834 1.25 1.25 2.5 2.5 2.917.417 0 .417.833 0 .833 0 .834-.833.417-1.25.417-.833-.833-1.666-1.667-2.5-2.083h-.416c0 .833.833 1.25.833 1.666.833 1.25 2.5 1.25 2.083 2.917 0 .417 0 .833-.416.833-2.084-.416-5-1.25-6.667.834 0 .416 0 .416.417.416 2.083 0 3.75 0 5.416 1.25.417.417.834.834.417 1.25-.417 0-.833 0-1.25.417s-1.25.833-2.083 1.25v.417c.833-.417 2.083-.834 2.916-1.25.417 0 .834 0 .834.416 0 .417-.417.417-.834.834 0-.834-1.666-.417-1.666.833h.416c1.25 0 2.084-2.083 3.334-1.667.416 0 .416.417.416.834-1.666 1.25-4.166 2.083-4.583 4.583v.417c.417 0 .417-.417.833-.834 1.667-1.25 2.917-2.5 5-2.916 0 0 .417 0 .417.416 0 .834-1.667 1.667-1.667 2.5-.416.834-.416 1.667-.833 2.5 0 0 .417.417.417 0 .833-1.25 1.666-3.333 3.333-4.166 0 .416.417 0 .833.416.834 0 2.084.417 2.5 1.25 0 2.084-.833 4.584 0 6.25.417-.416 0-.833.417-1.25 0-1.666.833-2.5 1.25-4.166 0-.417.833-.417.833-.417.834.417.834 1.25 1.667 1.667.417-.417 0-1.667 0-2.084.417-.416.833-.416 1.25-.416h.833c.417-.417 0-.834 0-.834.834-.833 1.25-2.5 2.917-2.083l.417.417c0 .833 0 2.083-.417 2.916-.417 0-.417-.833-1.25-.416-.417.416 0 .833 0 1.25.417.833.833 1.666 1.25 2.5 0 .416.417.416 0 .833-1.25 0-1.667-1.25-2.083-1.667-.417-.416-.834 0-.834.417-.416 1.25.834 2.5 1.667 3.333.417 0 .833.417.833.417 0 .417-.416.833 0 1.25l.417.833c-.417.417-1.25 0-2.083-.416-1.25-.834-2.5-2.5-2.917-4.167 0 0-.417-.417-.417 0-.416 1.25 0 2.083.834 2.917.833.416 1.25 1.25 1.25 2.083-.417.417-.834.417-1.25.417-1.25-.834-1.25-2.5-1.25-3.75 0 0-.417-.417-.417 0-.417.833-.417 1.666-.417 2.083s.417 1.667-.416 2.083c-.834.417-1.667 0-2.5.417-.834-.417-.834-1.667-.834-2.5 0-.417-.416 0-.416 0-.834.417-.834 2.5-2.084 2.083-.833-.416-2.083-.833-2.916-2.083-.417-1.25.833-1.667.833-2.917.417-.833 1.25-1.666 1.667-2.5-.417-.416-1.25.417-1.667.834-.833 1.25-1.667 2.5-2.083 3.75 0 .416-.417.416-.834.416-1.25-1.25-4.166-2.083-3.75-4.166.417-.417.417-.834.834-1.25 0-1.25-.417-.417-.834 0zm29.167 4.583h.417c.416-.833.416-2.5.416-3.333 0-2.917.417-5.834.834-8.334 0-.416 0-1.25.833-1.25s2.083.417 2.5 1.25c.417 3.75 0 7.917-1.25 11.25-.417 1.667-1.667 2.917-2.5 4.584-.417.416-.417 1.666-1.667 1.666-2.5-3.333-4.166-7.5-4.166-12.083 0-1.667-.834-4.167.416-5.417 1.25-.416 2.084-1.666 3.334-1.25v.417c.833 3.75-.417 8.333.833 12.5zm10.833 12.083c-2.083-.833-4.166-2.916-4.166-5.416 0-.417.416-.417.416 0l2.084 2.083c1.666.833 3.333 2.083 4.166 3.75 0 .417.417 1.25-.416 1.667-.834.833-1.667 1.25-2.917 1.25-2.083-.417-4.167-2.084-5-3.75-.417-1.25-.417-2.917 0-4.167.833 0 .417.833.833 1.25.834 1.667 2.5 4.167 4.584 4.583.833-.833.416-1.25.416-1.25zm-.833-19.583c-.417.417-.833.833-1.25 1.25-.417-.833.417-1.667.417-2.083v-.417c-.417-.417-.834 0-.834-.833v-.834h.834c.833.834 2.083 2.084 3.333 2.917 0 .833 0 1.667-.417 2.5 0 .833-.833 1.667-.833 2.5 0 .417.417.417.417 0 .833-1.25 1.25-2.5 2.5-3.75 1.25-.417 2.5 0 3.75 0 .833.417.416 1.667.833 2.5 0 .417 0 1.25.417 1.667.833 0 .833-1.25.833-1.667.417-1.25 0-2.083 0-3.333v-.834c.417-.416.833-.416 1.25 0 .833.417 1.25 1.667 2.083 2.084.417 0 0-.417 0-.834 0-.833-1.25-1.666-1.25-2.5 0-.416.417-.416.834-.416.833.416.416 1.666 1.25 2.083.416 0 0-.417 0-.833-.417-.834-.834-1.667-.834-2.5.417-.417.834 0 .834 0 1.25.416 2.083.833 3.333 1.666 1.25.834 1.25 2.5 1.667 3.75-.417 1.25.833 2.917-.417 3.75-.833.417-1.667 1.25-2.5 1.667-.417-.417-.417-.833-.833-1.25-.834-.833-1.25-2.917-2.5-2.5-.417.417.416 1.25.416 2.083 0 1.25 1.25 2.5.417 3.75-1.25-.416-1.667 1.25-2.917.834-1.25-.417-2.5 2.083-3.75 0 0-1.667 0-3.334-.416-5.417 0-.417-.417-1.25-.834-1.667-.416.417 0 1.25-.416 2.084 0 1.666-.417 3.333-1.25 4.583-.417.417-.834.833-1.25.417 0 0-.417 0-.417-.417 0-.833.417-1.667.417-2.5 0-.417-.417 0-.417 0-.833 1.25-2.083 2.917-3.75 2.5-.417-.417-.417-.417-.833-.417.416-.833 1.666-1.666 1.666-2.5-.833 0-1.25.834-2.083 1.25-.417-2.916 2.5-4.583 2.917-7.5 0-.833-.417-.833-.417-.833zm0-13.75c1.25-1.667 3.333-2.083 5.417-2.5 2.083 0 4.583.417 5.833 2.083 1.667 2.084 2.083 5 1.25 7.5-1.25 2.5-3.75 4.584-6.667 4.584-1.25.416-2.083-.417-3.333-.834-1.667-.833-2.083-2.5-2.917-3.75-1.25-2.5-.833-5 .417-7.083zm21.667 33.333s.416-.416.833-.416c.833 0 1.25 0 2.083.416.417.834.834 2.084.417 2.917-1.25.417-2.083 0-2.917-.833-.833-.834 0-1.667-.416-2.084zm.833-1.666c-1.25-.417-2.5-1.667-3.333-2.917-.417-1.25-1.25-2.083-1.25-3.333 0-.834-.417-1.667 0-2.5.833 2.083 2.5 3.75 4.166 5.416.417.417 1.25.417 1.667 1.25 0 .834-.417 1.667-1.25 2.084zm-10 25.833c-1.25.417-2.083-1.25-3.333-1.667-1.25-1.666-2.5-3.333-2.5-5.416l.416-.417c.834 1.25 1.667 2.917 3.334 3.333.416 0 .416 0 .416-.416-.416-1.25-1.25-2.5-.833-3.75.833 0 1.25 1.25 2.5 1.25.417.416.417 1.666.417 2.083-.417 1.667 0 3.75-.417 5zm-.417 27.083c0-3.333.834-7.083.834-10.416.416-.417 1.25-.834 2.083-.834v2.084c0 3.333-.417 6.666-.417 10.416 0 1.25-.416 2.917-.416 4.167-.417.833-.417 1.667-.417 2.917 0 2.916-.833 5.416-1.25 7.916-.417.417-.417 1.667-1.25 1.667-.833-.833-.417-2.083-.417-2.917.417-.833 0-2.083.417-2.916 0-4.167 1.25-7.917.833-12.084zm-.833 24.167c.833 1.667.833 3.333 1.25 4.583 0 .834.417 1.667-.417 2.084-2.083-.417-3.75.416-5.416 1.666-.417 0-.834 0-1.25-.416-.417-.834 0-1.667 0-2.5.416-.834 0-2.084.833-2.917.417-.417 1.25-.417 1.25-1.25-.833-.417-2.083 0-2.5-.833-.833-1.25-1.667-2.5-1.667-4.167 1.25-1.25 3.334-1.667 5-1.25.417.417 1.25.417 1.25.833 1.25 2.084 1.25 3.334 1.667 4.167zm-2.917 10c.417-1.25 1.667-1.25 2.5-1.667.417 0 .834 0 .834.417-.417 2.5-.834 5-2.5 7.083 0 .417-.417.417-.834.417-.416 0 0-.417 0-.833.834-1.667.834-3.75 0-5.417zm-4.166 4.167c-1.667-.417-3.75-1.667-3.75-3.75 0-.417-.417-.834-.417-1.25.833-.834 2.083-.834 3.333-.834l.417.417c-.417 1.667-.833 4.167.417 5.417zm-2.5-7.084c-.834 0-1.667.834-2.5.834-.417-.834-.417-1.667-.834-2.5-.416-2.917 0-5.834 2.5-7.5.417-.417.834 0 1.25 0 .834.833 1.25 2.083 1.667 2.916.417.834.833 1.25 1.25 2.5s0 2.5 0 3.75c-1.25.417-2.5-.416-3.333 0zm-19.167 4.167c.833-.417 1.667-1.25 2.917-.417.833.834.833 1.667.833 2.5-.833 1.667-2.5 3.334-4.167 3.75 0 0-.416 0-.416-.416 0-1.25.833-2.084.416-3.334-.416-.833 0-1.25.417-2.083zm3.333-1.667c-.833 0-1.666-.416-2.083-.833-.833 0-.833.833-1.667 1.25-.416 0-.416.417-.833.417-.417-.834-.417-1.667-.417-2.5-.416-.834 0-2.084.417-2.917.833-.417 1.25-1.25 2.083-1.25.417-.417.417-.417.417-.833-.417-.417-1.25-.417-1.667-.417-.833.417-1.25.833-2.083 1.667-.833-1.25-.833-2.5-.833-4.167 0-1.25.416-2.917 1.666-3.333.834.416 2.5.416 2.917 1.666 1.667 2.084 3.333 4.167 3.75 7.084 0 1.666.417 3.333-.417 5-.833 0-.833-.417-1.25-.834zm-5-15.833c-2.5-1.25-2.916-4.167-2.5-6.667 0-.416 0-1.25.834-1.25.416.417.416.834.833 1.25 1.25 2.5 4.167 4.167 6.25 6.25 1.667.834 2.5 2.917 2.5 5 .417.417 0 1.25 0 1.667 0 0-.417 0-.417-.417-2.083-2.5-4.583-5-7.5-5.833zm-12.083-72.5c.833-.417 1.25-1.25 2.083-1.667.834-.833 1.25-1.666 2.084-2.5.416 0 .833 0 .833.417 0 1.25-.417 2.083-.833 3.333-1.25 2.5-2.917 5-5.834 5.417-.833 0-1.666-.417-2.083-.833 0-1.25-.417-2.084-.417-2.917 0-2.083 1.667-3.75 2.917-5.833.417-.417 1.25-.834 1.25 0-.417 1.25-.417 2.916-.417 4.166.417 0 .417.417.417.417zm6.25 15.417c1.667-1.25 2.917-3.334 4.167-4.584h.416c0 2.917-1.666 5.417-3.75 7.917-1.25 1.25-3.333 2.083-5 1.667-1.25-.417-1.666-1.667-2.083-2.5 0-1.25.417-2.084.833-2.917 1.667-1.25 3.75-2.5 4.584-4.167 0-.416.416-.416.833-.416 0 2.083-1.25 3.75-2.083 5.416 1.25.417 1.666 0 2.083-.416zm4.583-11.25c1.667-.417 2.5-1.667 3.334-2.917 0-.833.833-1.25 1.25-2.083h.416c0 2.916-1.25 5.833-3.75 7.916-.416.417-1.25.417-1.666.417-.834-.417-2.084-.833-2.084-1.667 0-2.083.417-3.75 2.084-4.583.416-.417.833-1.25 1.666-1.667 0 1.25-.416 2.5-.833 3.334 0 .416-.833.833-.417 1.25zm7.917 28.75c.417 0 .417 0 0 0 .833-.417.417-1.25.833-1.667.417-.417.834 0 .834 0 1.25.833.416 2.5.833 3.75 0 1.25-.417 2.917-.833 4.167.416.416.833 0 .833 0 1.25-1.667.833-3.334 1.25-5.417 0-.417 0-.833.417-1.25.416 0 .416 0 .416.417v3.75h.417c1.25-1.667.417-3.75 1.25-5.834.417-.833 0-2.083.417-3.333.833 0 .833.833.833 1.667 0 .833.417 1.25.833 1.666.417 4.167 1.667 10-2.5 12.5-1.25.834-3.333.417-4.583 0-1.25-.416-1.667-2.083-2.083-2.916-.834-2.5-1.667-5-1.25-7.917.416-2.5.833-5.417 2.083-7.5.417 0 0 .833 0 1.25 0 2.5-.417 4.583 0 6.667zm12.083-8.75c-.416-.834-.416-2.084-.833-3.334 0-.833.833 0 .833.417.834 2.5 4.584 2.917 4.584 5.833.416.834.416 1.667 0 2.5-.834.834-2.084 1.25-3.75 1.25-2.084-.833-3.334-2.916-5-4.583 0-1.25-1.25-2.083-.417-3.333.417 0 .833.416.833.416 1.25 1.25 2.5 2.5 3.75 3.334.417 0 .417 0 .834-.417.833-.833-.417-1.25-.834-2.083zm-2.083 24.166c-.417-.833-1.667-1.666-1.667-2.5 0-.416-.416-.833.417-1.25 2.083.834 3.75 2.084 5 3.75.417 1.25.417 2.917 0 3.75 0 .417-.417 1.25-.833 1.25-.417.417-1.25.417-2.084.417-2.083-1.25-3.333-3.75-3.75-6.25h.417c.833.833 1.25 2.917 2.917 2.083 0 0 0-.833-.417-1.25zm3.75-4.583c-1.25-1.667-2.5-3.333-2.5-5.833 0 0 .417-.417.417 0 .416.416.416.833.416 1.25.417.833.834 2.083 2.084 2.083.416 0 0-.833 0-.833 0-1.25-.834-2.084-.417-3.334 1.667 1.667 3.75 3.334 2.917 5.834 0 .833-.834 1.25-1.25 1.25-.417 0-.834 0-1.667-.417zm-21.25-2.5c1.25-1.25 2.083-2.5 2.917-3.75.416 0 .416 0 .416.417.417 3.333-1.25 5.833-3.75 7.5-.833.416-1.666.416-2.083.416-.417-.416-.833-1.25-1.25-1.666-.417-2.5.417-4.584 2.083-6.25.834-.834.834-1.667 1.667-2.084.833.417.417 2.084.417 2.917 0 1.25-.834 1.667-.834 2.917-.416.416 0-.417.417-.417zm2.083 5c.417-1.25 1.667-1.667 2.5-2.917.417 0 .834 0 .834.417 0 2.083-1.25 3.75-2.084 5.417.417.416.834-.417 1.667-.417 1.25-.833 1.25-2.5 2.083-3.75.417 0 .834.417.834.417 1.25 2.916-.417 5.416-1.667 7.5-.833 1.666-2.5.833-3.75 1.25-.833 0-1.667-.417-1.667-1.25-.833-2.5.834-4.584 1.25-6.667zm3.75-24.167c0 1.25-.416 2.084-.833 3.334l-.417.416c.417.417 0 .834 0 1.25-.416 2.5-2.5 4.167-5 4.584-.833 0-1.666-.417-2.5-.834-1.25-.833-.833-2.5-.833-4.166.833-2.5 2.5-5 4.167-7.5 0 0 .416-.417.416 0 .417 2.5 0 4.583-.833 6.666 0 .417 0 .834.417 1.25.833-.416.833-1.25 1.666-1.666v-.417c.834-1.667 2.084-3.333 2.5-5.417 0-.416.417-.416.417-.416 1.25 1.25.833 2.083.833 2.916zm-12.5-12.916c-.833.833-2.083 1.666-3.333 1.666-.417 0-.833-.416-.833-.833-.417-2.5 1.666-3.75 2.083-5.833.417-.417.833-1.25 1.25-1.25.417 1.25-.417 2.5-.417 4.166.417.417.834-.416 1.25-.833.834-1.667 1.667-3.75 2.084-5.417 0-.416.416 0 .416 0 0 3.334-1.25 5.834-2.5 8.334zm-4.583 15.416 2.083-2.083c.417 0 .417 0 .417.417.417 1.25-.417 2.916-.833 3.75 0 .416-.417 1.25 0 1.666.833 0 1.25-.833 1.666-1.25.834-1.25 1.667-2.5 2.917-3.333h.417c0 2.083-1.25 3.75-2.084 5.417-.833 1.666-2.5 2.916-4.583 2.5l-.417-.417c-.416-2.083-.833-5 .417-6.667zm7.083 25c.417-.416.417-.833.834-.833 0 .833-.834 1.25-.834 2.083-.416.834-.833 1.667-.833 2.5.417.417.833 0 1.25 0l2.5-2.5v.834c-.833 1.666-1.667 4.166-4.167 4.583-.833 0-1.666 0-2.083-.417-.417-1.25 0-2.916.833-4.166.834-.417 1.25-1.667 2.5-2.084zm-.416 16.25c0 1.667.416 3.75-.417 5-.417.417-.833.834-1.25.417-.833-.417-.833-.833-.833-1.667 0-1.666-.417-3.333.416-5 .417-1.25.417-2.083.834-3.333 0-.833.416-1.667.416-2.5.417.417 0 1.25.417 1.667.417 2.083-.417 3.75.417 5.416zm-2.917 12.5c.417-.833.833-2.083 1.667-2.916.416-.834 1.666-.417 2.5-.834.833.417 2.5-.416 2.083.834-.833 1.666-1.667 3.75-.833 5.416-.417.834-2.5 0-2.084 1.25.834 1.25 2.084.417 2.5 1.667.417 1.25.417 2.917.834 4.167 0 .416-.417 0-.417 0-1.25-.834-2.5-1.667-3.75-.834-.833.417-1.25 1.25-2.083 2.084-.417.416-.417-.417-.417-.417-1.25-3.333-.833-7.5 0-10.417zm10.417-10.833c-.834-1.25-1.25-2.917-2.084-4.167 0-1.666-.416-2.916 0-4.583 0-.417 0-.833.417-1.25 0 3.333 2.083 5.417 3.75 7.917 1.25 1.25 4.167 1.666 3.75 4.166 0 1.25.833 2.084 0 3.334-.417 0-.417 0-.417-.417-1.25-2.083-3.75-3.333-5.416-5zm6.25-4.167c-1.667-1.666-2.917-3.75-2.084-6.25 0-1.666.834-3.333 2.084-4.166.416-.417 0-1.25.833-1.25.417.416 0 .833-.417.833.417 1.667 1.25 4.167-.416 5.417 0 .416 0 .833.416.833 1.667.417 1.25-1.667 2.084-2.083 0 1.25-.834 2.5-1.667 3.333 0 .417.833.417.833.833.834 0 1.25-1.25 1.667-1.666.417-2.084.417-3.75-.833-5.417 0-.417-.417-1.25.416-2.083 1.25 0 1.667 1.25 2.084 2.083.833 1.667 1.25 4.167.416 5.833.417 2.084-1.666 2.5-2.5 3.75-.833 0-2.083.834-2.916 0zm4.166 4.167c0-.833.834-1.25 1.25-2.083.834-2.084 1.667-3.75 2.917-5.417.833-.833.417-2.083.833-3.333.417 0 .417.833.834 1.25.416 2.083.416 4.583-.417 6.25-1.25 2.5-3.333 4.583-4.167 6.666-.416.417-.416 1.25-.833 1.667-1.25-1.25-1.25-3.333-.417-5zm1.25 7.917c.417-2.084 1.667-3.75 2.5-5.417 1.667-2.083 2.5-4.167 3.334-6.25 0-.417-.417-.833 0-1.25.833 1.25 1.25 2.917.833 4.583 0 4.167-4.583 6.667-5 10.417-.417.417-.833 1.25-1.25 1.667-.417-.834 0-2.5-.417-3.75zm10-8.334c0-2.5.834-4.583.834-7.083 0-.417.416-.833.416-.417.417 2.5 0 5 .834 7.084 0 1.666.416 3.75-1.25 4.583-.417.417-.834 0-.834-.417-.833-1.25 0-2.5 0-3.75zm3.334-14.166c-.417.416-.834.833-1.667.416-2.5-.833-3.333-3.333-3.75-5.416.417 0 .833.833 1.25.833.833.417 1.25 2.083 2.5 1.25 0-1.25-1.25-1.667-1.667-2.917 0-.416-.416-.833-.416-1.25.416 0 .416.834 1.25 1.25 1.25.417 2.5 1.667 2.916 2.917.417.833.417 2.083-.416 2.917zm-4.584-36.25c-1.666-1.25-2.083-2.917-2.5-5 0-.417-.416-1.25 0-1.667.417 0 .417.417.417.417.833.833 1.667 2.5 2.917 2.916.416.417.416.417.416.834.417 0 .834 0 .834-.417s-.417-1.25-.834-1.667c-.416-1.25-1.666-2.083-1.25-3.75.417-.416.834.417 1.667.834 1.667.416 4.167 1.666 4.583 3.75 0 1.25 0 2.916-.833 3.75-2.083.833-4.167.416-5.417 0zm5-12.5c.417.416.834.833 1.25.833.834.833 1.667 2.083 1.25 3.333-.416.417-.416 1.25-.833 1.667-1.25 0-2.083-1.25-2.917-2.083-.833-.834-1.25-1.667-.833-2.917 0-.417.417 0 .833 0 .834.417 1.25 1.667 2.084.833-.417-.416-1.25-.833-.834-1.666zm1.25-.834c-1.25-2.083-2.5-3.75-2.5-6.25h.417c.833 1.25 2.083 3.334 4.167 3.334.416-.417-.417-1.25-.417-1.667 0-.833-.417-1.25-.417-2.083.417 0 .417.416.834.833 1.25.833 2.5 1.667 2.916 3.333 0 1.25 0 2.917-1.25 4.167-1.666-.417-2.916-.833-3.75-1.667zm-13.333 15.834c-1.25 1.666-3.75 3.333-6.25 3.333-1.25-.417-2.5-.417-3.333-1.667 0-.833-1.25-1.25-.834-2.5-.833-2.083-1.666-4.166-1.25-6.666-.416-2.5.417-5.417.834-7.917.416-.417.833-1.667 1.25-.833 0 2.5-.834 4.583.416 6.666.417 0 .417.417.834.417.833-.417 0-1.667.416-2.5.417-.417.417 0 .834.417.416 2.5 0 5.416 1.25 7.5.416.416.833.833 1.25.416.416-.416 0-.416.416-.833-1.25-3.333-1.25-7.5 0-10.833.417 0 .417 0 .417.416.417 2.084-.417 4.584.417 6.25.833-.416.833-1.25 1.25-2.083.416-2.083 0-4.583.416-6.667.417 0 0 .417.417.417 1.25 5.417 4.583 11.667 1.25 16.667zm-10-47.5c0-.417.417-1.25-.417-1.25-.416 0-1.25.416-1.666.416l-.417-.416v-.417c.833-.417 2.083-1.25 2.917-1.667.416-.416.833-.833 1.25-.416.416 1.666-.834 2.916-1.667 3.75 0 .416 0 .416 0 0zm-2.917-3.334c-.833 0-1.666.417-2.5-.416.417-.834 1.25-.417 1.667-.834 1.25-.416 2.083.834 2.917.834v.416c-.417 0-1.25-.416-2.084 0zm2.5-6.666c-.416 0-.416-.834-.833-.834-.417-.416-.417-.416-.833-.416-.417.416-.834 1.25-1.25 2.083v.417c-.834 0-.834-.834-1.667-1.25-.417-1.25.833-2.084 1.25-2.917.833 0 2.083.417 2.5 1.25.417 0 1.25.417.833 1.667zm-3.333 2.5c-.417 1.25 1.25.833 1.667 1.25v.416c0 .417-.834.417-1.25.417-1.25-.417-2.5 0-3.334.417-.416 0-.833 0-1.25-.417 0-.833 1.25-.417 1.667-.417.417-.416.833-.416 1.25-.833-1.25-.833-2.917 0-4.167 0-.833.417-2.083.417-2.916 0 0 0 0-.417.416-.417 1.25.417 2.084-.833 3.334-.833.833-.417 2.083 0 3.333 0 .417 0 .833.417 1.25.417zm-3.333-2.084c-2.084 0-3.75 1.25-6.25.834 0 0-.417 0-.417-.417s.417-.417.417-.417c.416-.833 1.666-.416 2.083-.833.417 0 1.25 0 1.667-.417 1.25 0 2.916 0 3.75 1.25v.417c-.417 0-.834-.417-1.25-.417zm-5.417 5.834c2.5-.834 5 0 6.667 1.25 1.666 2.083 2.083 5.416.833 7.916-.833 1.667-2.083 3.75-4.167 3.75-2.5 1.25-5 0-7.083-1.666-1.25-1.667-2.5-3.75-1.667-5.834.417-2.083 2.917-4.583 5.417-5.416zm-7.917 40.416s0 .417 0 0c0 5 .417 9.584.834 15 .416 4.584.416 9.167.833 13.334 0 .833-.833 1.25-1.25 2.083-.417.417-.833 1.25-1.667 1.667-.833-1.25-.416-2.917-.833-4.584-.417-7.083-1.25-15-1.25-22.5.417-.833.833-1.666 1.25-2.916.833-.417 1.667-1.25 2.083-2.084zm2.084 29.584c1.25-1.25 2.5-2.5 3.333-3.334h.417c-.417 2.084-.834 4.167-2.5 6.25 0 .417 0 .417.416.417.834-1.25 1.667-2.083 2.917-3.333.833-.834 1.25-1.667 2.083-2.5.417.833 0 1.666 0 2.083-.416 3.333-1.666 6.25-5 7.917-1.25 0-1.666.833-2.916.416-.834 0-1.667-.833-2.084-1.666 0-2.084 1.667-4.167 3.334-6.25zm-1.667 9.583 1.25-.417s.417 0 .417.417c.416 3.75.416 7.5.833 11.25 0 2.917.417 5 .833 7.917.417 1.666 0 3.75.834 5.416.833 1.667-.417 2.5-.834 3.75-1.25 0 0-1.666-.833-2.5-1.25-5-2.5-9.583-2.917-15-.416-2.5-.416-5-.833-7.5-.417-1.25 0-2.5-.417-3.75.834 0 1.25.417 1.667.417zm-.833 35.833c0-1.666.416-3.333 1.25-4.583 0-.833.833-.833 1.666-1.25.834 0 1.667-.833 2.5 0 0 .417.834.833.417 1.667-.417.833-.833 1.666-2.083 2.5-.417 0-1.25-.417-1.25.416 0 1.25 1.666.417 2.083 1.25 0 .834.417 2.084 0 2.917-.833 0-2.083 0-2.917.417-.416.416-.833.833-1.25.416-1.25-.833-.833-2.5-.416-3.75zm2.083 4.167c.833-.417 1.667-.417 2.5 0 0 .833-.417 2.083-.417 2.917 0 1.25.834 2.5 2.084 2.916-.834.417-1.667-.416-2.5-.833-1.25-.833-1.25-2.083-1.667-2.917 0-.416-.833-1.666 0-2.083zm8.333.833c.834 0 1.667 0 2.5.834 0 .833-.416 1.666-.416 2.916s0 2.5.833 3.334v.416c-.833 0-1.667-.833-2.083-1.25-1.25-1.25-2.5-2.5-2.5-4.166 0-1.25.833-1.667 1.666-2.084zm39.167-.833c-.417 0 0-.417 0-.833.833-1.25 2.083-.417 3.333-.834.417 1.25-1.25 2.084-1.666 3.334-.417.416-.417.833-.417.833-.833.833-1.25 1.667-2.083 2.5h-.417c.417-1.25 2.083-2.917 1.25-5zm3.75-2.917c-.417.417-.417.417-.833.417-1.25-.417-2.084.417-3.334.417-.416-.834-.833-2.084-.833-2.917.833-.833 1.667-1.25 2.083-2.083 0-.417 0-.417-.416-.417-.834 0-1.667 1.667-2.5.417-.417-.834-.834-2.084-1.25-3.334.833-.416 1.666 0 2.083.417l1.25.417c2.083.416 2.083 2.916 3.333 4.166.417.417 1.667 1.667.417 2.5zm-4.583-42.083c-2.5.417-5-.833-6.667-2.5-.833-1.25-1.667-2.5-1.667-4.167 0-.416.417-.416.834-.416 1.25 1.25 2.916 2.5 4.583 2.916l.417-.416c.416 0 .416.833.833.416 0 0 .417-.416 0-.416-2.083-1.667-3.333-3.75-3.75-5.834 0-.416.417-.416.833-.416 2.084 1.25 4.167 2.916 6.25 4.583.834 1.25 1.667 2.5 1.25 3.75-1.25 1.25-2.083 2.083-2.916 2.5zm1.25-40.833c0-.417.416 0 .416 0 .834.833 1.25 1.666 2.084 2.5 1.666 1.25 2.916 2.916 5 3.333.416.833 1.666.833 2.083 1.25 0 .833-.417 1.667-1.25 1.667-2.5 0-3.75-1.667-5.417-3.334-1.25-1.25-2.083-3.333-2.916-5.416zm9.583-3.75c-.417 0-1.25 0-1.667-.417-1.666-.833-.833-2.5-1.25-4.167 0-1.25-.416-2.5.417-3.333.417 0 .417.417.417.417.833 2.5 2.083 4.583 2.083 7.5zm-1.667-16.25c0 .416-.416 0-.833 0-.417-.834-1.667-1.25-2.083-2.5 0-.417-.834-.417-.834 0 0 0-.416.416 0 .416 1.25 1.667 1.667 3.334 2.917 5 0 .834-.833 1.667-1.25 2.5h-.417c-.833-.416-.833-1.25-1.25-2.083 0-.417-.416-1.25-.416-1.667.416-1.666-1.25-2.5-1.667-3.75-.833-.833-2.083-.833-2.5-1.666 0-.417 0-.834.417-.834 1.25-1.25 2.5.417 3.75-.416.416.416 1.25 0 1.666 0 .834.416 1.667 1.25 2.5 1.25.834.416.834 1.25.834 2.083-.417.833-.834 1.25-.834 1.667zm-2.083-15.417c0 .417-.417 1.25 0 1.667.417.416 1.25.416 1.25 1.25 0 .416 0 .833-.417.833-1.25 0-2.5.417-3.333 1.667 0 .416 0 .416.417.416.833 0 .833-1.25 2.083-1.25.833 0 1.25-.416 2.083 0 0 .834.834 1.25.834 1.667-.417 1.25.416 2.917-.417 4.167-1.667 0-2.917-1.667-4.583-.417-.834 0-2.084-.833-2.917-.417-.833-.416-1.25-1.666-.833-2.5.416-.833 1.25-.416 1.666-1.25.417 0 1.25.417 1.25 0 0-.833-1.25-.416-1.666-.416-.417 0-.834.416-1.667.416-.417-.416-.417-.833-.417-1.666.834-1.667 2.917-2.084 4.167-2.5 0 0 .417-.417 0-.417-1.667-1.25-3.75.417-5 1.25-.417 0-.417 0-.417-.417.417-1.25.834-2.5 2.084-2.916l.416-.417c-.416-.417-.833 0-1.25 0-.416.417-1.25 1.25-2.083 1.667 0-.834 1.25-1.667 1.667-2.917 0 0 0-.417-.417-.417-1.25.834-2.083 2.084-3.75 2.917h-1.25c-.417 0 0-.417 0-.833.833-1.25 2.083-2.5 2.5-3.75.833-2.5 3.75-2.084 5.417-3.75.833.416 1.666-.417 2.083.416-.833.834-1.25.834-1.667 1.25-.833.834-2.5 1.25-2.916 2.5.833.417.833-.416 1.666-.833.417-.417.834-.833 1.25-.417.834.834 1.25-1.25 1.667.417-.417.833-1.25.833-1.667 1.25-.416.417-1.25 1.25-1.25 2.083 0 .417.417 0 .834 0 .833-.833 1.666-1.666 2.916-1.666 1.25.833 1.667 2.083 1.667 3.333zm-14.583-12.083c.833-1.25 2.5-.834 3.333-1.667 2.917-.833 5.833.417 8.333-1.667l2.917-2.083c1.25 0 1.667-1.25 2.5-1.667.417 0 .833 0 .833.417-.416 1.25-.833 2.5-1.25 4.167-.416 2.083-2.5 2.5-4.166 3.75-.834.833-2.084.833-3.334.833-2.5 0-4.583 1.25-5.833 3.333.417.834-.417 1.25-.833 1.25-.417.417-1.25.417-1.667.834.417.416.833 0 .833.833-1.25 1.25-3.333 0-4.583 1.25l-.417.417c.417.416 1.25 0 1.25.416-.833.834-2.5.417-3.333 1.25 0 .417 0 .417.417.417.416 0 .833-.417 1.25 0 0 .417-.417.417-.834.833-1.25.417-2.5 0-3.333.834.417.416 1.25.416 1.667.833-1.25.833-2.917.833-3.75 1.667-.834.416.416 2.916-1.25 2.083-.834-.833-1.25-1.667-1.667-2.917.417-.416 0-1.666.417-1.25.833.417.833 1.25 1.25 1.667.416 0 .833-.417 1.25-.833-.834-1.25 1.25-1.25 1.666-2.084 0-1.25 1.25-.833 1.667-1.25 1.25-.416 2.083-.416 3.333-.833 0 0-.416 0-.416-.417h-.417v-.416c1.25-1.667 3.333-1.25 5-1.667 0-.417-.833-.417-.417-.833 1.25-.834 3.334-.417 3.75-2.084 0-.416.417-.833 0-.833-.833.417-1.25 1.25-2.083 1.667-.833.833-1.667 1.25-2.5 1.666 0-.416.417-.833.833-1.25 1.25-1.25 2.084-2.916 2.917-5 0-.416-.417 0-.833 0-1.25 1.25-2.917 2.084-4.167 3.334-.417 0-.833.416-.833 0-.417-.834.833-.834.833-1.667 0-1.667.833-2.5 1.667-3.333zm-13.75 7.5c-.417-.417-.417-1.25-.417-2.084h-.417c-.416.417-.833 1.25-.833 1.667h-.417c-.416-1.25 0-2.5.417-3.333.417-.417.833-.834 1.25-.834.417.417.833.834 1.25 1.25 0 1.25 0 2.5-.833 3.334zm4.166-1.667c-.416-.417-.833.417-1.25.417-.416.416-.833 1.25-1.25 1.666-.416 0-.416 0-.416-.416 0-1.25.416-2.084.833-3.334.417-.833 1.667-.833 2.083-1.666.417-.417 1.667-.834 1.667.416 0 .834.417 1.667.833 2.5 0 .834-.833 1.667-.833 2.5 0 0-.417.417-.833.417 0-.833-.417-1.667-.834-2.5zm1.25-9.583c0-1.25 1.25-.834 2.084-1.25 1.25 0 2.916 0 3.75 1.25.416.416.416.833.416 1.666-.833.417-.416 1.667-1.25 2.084-1.25-.417-.833-1.667-1.666-2.5-1.25-.834-2.084.416-3.334.833-.833-.833 0-1.667 0-2.083zm1.25 2.5c.417 0 .417 0 .834.416 0 1.667 2.083 2.917.416 4.167-1.25 0-.833-1.25-1.25-2.083-.833-.834-1.666.833-2.5.416-.416 0-.833-.416-.416-.833 0-1.25 1.666-1.667 2.916-2.083zm-8.75-2.5c.834-1.667 2.5-1.667 4.167-1.667.833.833.833 1.667 1.667 2.083 0 .417 0 1.25-.417 1.667-.417 0-.833-.833-1.25-.833-.833-.834-1.667-.834-2.5-.834-.417 0-.833.834-1.25.417-.417 0-.417-.417-.417-.833zm1.667 2.083c.833-.417 1.25.833 1.667 1.667 0 .416 1.25.833.833 1.666-.417.417-.417.834-.833.834-.834-.417-1.25-1.667-2.084-1.25-.416.416-.833.833-1.25.833-.416-.417-.416-1.25-.416-1.667.833-1.25 1.25-1.666 2.083-2.083zm-2.083 16.25c.833-.417 1.666.417 2.083-.417 0 .834.833 2.084.417 2.917 0 .417.416.833.416 1.667-.416 0-.416-.834-.833-1.25 0-.417-.417-.834-.833-.834-.834 0-.417 2.084-1.25.834-.417-.834.416-1.667-.417-2.084-.417.834-.833 1.25-1.25 2.084-.417 0-.833-.417-.833-.834 1.25-.416-.417-2.083 1.25-2.5.416 0 .833 0 1.25.417zm-.834-8.333c-.416 0-.416-.417-.416-.834 0-.416-.417-.833-.834-.416-.416.416-.416.833-.416 1.666-.834-.833-1.25-1.666-.834-2.916 0-.834.834-1.25 1.25-1.667.417 0 .834.417 1.25.833.417 1.25.417 2.5 0 3.334zm-2.916-5c0 .416-.417.833-.834 1.25-.416 0-.833-.417-.833-.417-.417-.417 0-.833 0-1.25.417-.833.833-2.083 1.667-2.5.833 0 1.666 1.25 2.5 1.25.416.417.416.833.416 1.25-1.25.417-2.5-.833-2.916.417zm0-7.084c.416 0 1.25 0 1.666.417.417.417.417 1.25 1.25 2.083 0 .417 0 .834-.416.834-1.667.416-1.667-1.667-3.334-1.25-.416.416-1.25 1.25-1.666 2.083-.417 0-.417.417-.834.417-.416-.417-.833-.834-.833-1.25.833-1.667 2.083-3.334 4.167-3.334zm-3.334 6.667c0 .417.417 1.25 0 1.667-.833 0-2.083 0-2.5 1.25-.416.416-.416 1.25-1.25 1.666-.416-.416-.833-.833-1.25-1.666.417-.834.834-2.084 1.25-2.917l.417-.417c1.667 0 2.5.834 3.333.417zm-5.416-5c.833 0 1.666 0 2.5.833.416.417.833 1.25 1.25 1.25.416 0 .416.417.416.834-.416.416-.833 0-1.25 0-.833 0-2.083-1.25-2.916.416-.417.417-.417 1.25-.834 1.25-.416-.416-.833-1.25-.833-2.083.417-.833.833-2.083 1.667-2.5zm-21.25.417v-3.334l.416-.416c1.25-.417.834 1.25 1.667 1.666.417 1.25 1.667 2.5 2.917 2.5 2.5 0 5-.416 7.5.417 1.666.417 3.333 1.667 4.583 3.333.417 0 .417-.416.833-.416.417.416 1.667.833 1.25 1.666 1.25 0 1.667 1.667 2.917 2.5-.833.834 2.083 2.084-.417 2.084-1.666-.834-3.333.416-5 .416-.416 0-.833 0-1.25-.416v-.417c.834-.833 2.084-1.25 3.334-1.25.416 0 0-.833.833-.417.417.417.417.834.833.834v-.417c-.833 0-.833-1.25-1.666-1.25-.834 0-1.25 0-1.667-.833-.417-1.25-1.667-1.667-2.5-2.084-.417-.416-.833-.416-1.25-.416-.417.416-.417.416-.417.833.834 1.25 1.667 2.5 2.917 3.333-1.25 0-2.083-1.666-2.917-1.25 0 0-.416.417 0 .834.417.833 1.667 1.666.834 2.5-.834 0-1.25-.834-1.667-1.25 0-1.25-1.25-1.25-2.083-1.667-.834-.417-1.667 0-2.917 0-.833-.417-1.667.417-2.5-.417-2.5-1.25-4.583-3.75-4.583-6.666zm-.834 46.25c.417-1.667 0-3.334 1.25-4.584.834 0 .417 1.25.417 1.667.417 1.25.417 2.917.833 4.167-.416.833-1.25 1.25-2.083 1.25-.833-.417-.417-1.667-.417-2.5zm7.084-2.084c.416-.416.833-.416.833 0 0 1.25-.417 2.5-.833 3.75-1.25 1.667-1.667 3.75-2.917 5.417-.833.417-1.667 1.667-2.917 1.667-.416-.834-1.25-1.667-1.25-2.917 2.5-2.5 5.417-5 7.084-7.917zm-5 15.417c-.417.417-.834.833-1.667.417 0-.834-.417-2.5.417-2.917.416-.417 1.25-1.25 1.666-.417.417 1.25.417 2.5-.416 2.917zm1.666-.417c1.25-1.666 2.917-2.916 3.75-5l.417-.416c-.417 3.333-1.667 6.666-3.75 9.166-.833 1.25-2.5 1.667-3.75 2.084-.417 0-.833-.417-.833-.834 0-.416-.417-.833-.417-1.25 1.667-.833 3.333-2.083 4.583-3.75zm-8.75-1.666c0-1.25.417-2.084 1.667-2.917.417-.417 1.25-.833 2.083-.833l.834 1.25c0 1.666-1.667 2.083-2.917 3.333-.417 0-.417.417-.833.417-.834-.417-.834-.834-.834-1.25zm.834 16.25c-.417 0-.834-.417-1.25-.417-.417-.417-.834-1.25-.834-2.083.417-.834 1.667-1.25 2.084-2.084 1.25-.833 2.083-2.083 3.333-3.333.417 0 1.25-.417 1.667 0-.834 2.917-2.5 5.417-5 7.917zm7.5 39.166c-1.667-5.416-3.334-10.833-4.167-16.666-.833-5-1.25-10-2.083-15 .416-2.084 0-4.584 0-6.667.416-.833 1.25-1.25 2.083-1.667 0 0 .417 0 .417.417 0 3.75.833 7.083.833 10.833.417 2.917.833 5.834.833 8.334 0 2.916.417 5.833.417 8.75.417 3.333.833 6.25 1.25 9.166 0 .834.417 1.667.417 2.5zm1.25-4.166c-.417-2.5-.417-5.417-.834-7.917-.833-5-.833-10.417-1.25-15.417-.416-1.25-.416-2.916-.416-4.583-.417-3.333-.417-6.667-.834-9.583-.416-2.084.417-3.75.834-5 .416-.417 1.25-1.25 1.666-.834.417 3.334 0 6.667.417 10 .417 1.25.417 2.917.417 4.167.416 5.417.416 10.417 1.25 15.417.833 7.083 1.666 14.166 2.5 21.666.416 2.5.833 5 1.25 7.917 0 0-.417.417-.417 0-2.5-5-3.75-10.417-4.583-15.833zm58.75 1.666c-.834 3.75-1.25 7.5-2.5 11.25 0 1.25-.417 2.5-.834 3.334h-.416c0-2.917 1.25-5 1.25-7.5.416-2.084.416-4.167.833-6.25.417-2.917.417-5.417.417-8.334.416-.833.416-2.083.416-2.916-.416-2.084.417-4.167.417-6.25.417-2.084.833-4.584.833-6.667.417-4.167.834-7.917.834-12.083.416-1.25 0-2.917.416-3.75v-3.334c.417-.833-.833-2.916.834-3.333.416.417 1.25.833 1.666 1.25 0 1.25-.416 2.5-.416 3.75 0 2.083-.417 4.167-.417 6.667 0 3.333 0 6.25-.417 9.166-.416 3.75-.833 7.5-1.25 10.834 0 4.583-.833 9.166-1.666 14.166zm9.166-39.583c-.416 2.5 0 4.583-.416 7.083 0 2.084-.834 4.167-.834 6.25 0 3.334-1.25 6.25-1.25 9.584-.416 3.333-1.25 6.25-2.083 9.583-.833 3.75-2.083 7.5-3.333 10.833h-.417c.417-3.333 1.25-7.083 1.667-10.416.833-4.167 1.666-8.75 2.5-12.917.416-3.333.416-6.667.833-10 .417-4.167.833-8.333 1.25-12.083.417-.417 1.25.416 1.667.416.416.417.416.834.416 1.667zm2.5-2.083c-2.083-1.667-4.166-2.917-5.416-5-.417-.417-.834-1.25-.834-2.084.417-.416.417-.833.834-.416.833 0 1.25 1.25 2.5 1.25.416.416.416.833.416 1.25l2.917 2.916c.417.417.833.834.417 1.667 0 0-.417.833-.834.417z"/><path d="m175.417 121.25c.833.833 2.083.833 3.333.833 1.25.417 2.5 0 3.333.834.417.416 1.25.833 1.25 2.083-2.5-1.25-5.416 0-7.5-2.083-.833 0-1.25-.834-1.25-1.667v-.833c.417 0 .417.833.834.833z"/><path d="m239.167 120.833c0 .417-.417 1.25-1.25 1.667-2.084 1.25-5 2.083-7.917 1.667v-.417c1.667-.417 3.75-.833 5.417-1.667.833-.416 2.083-1.25 3.75-1.25z"/><path d="m188.333 141.25c-.416 0-3.333 4.583-.416 7.083 3.75 3.334 8.333-2.5 7.5-3.75-.417-.416-1.667 3.334-5 2.5-3.75-.833-1.667-5.833-2.084-5.833z"/><path d="m218.75 147.5c0 1.25 4.583 3.333 7.083.417 2.917-4.584-1.25-7.084-2.5-5.834-.416.417 2.5 1.667 1.25 4.584-2.083 2.916-5.833 0-5.833.833z"/></g></g></svg>