<?xml version="1.0" encoding="UTF-8" standalone="no"?>
<!DOCTYPE svg PUBLIC "-//W3C//DTD SVG 1.1//EN" "http://www.w3.org/Graphics/SVG/1.1/DTD/svg11.dtd">
<svg width="100%" height="100%" viewBox="0 0 200 200" version="1.1" xmlns="http://www.w3.org/2000/svg" xmlns:xlink="http://www.w3.org/1999/xlink" xml:space="preserve" xmlns:serif="http://www.serif.com/" style="fill-rule:evenodd;clip-rule:evenodd;stroke-linejoin:round;stroke-miterlimit:2;">
    <g transform="matrix(1,0,0,1,0,-317)">
        <g id="adipid-logo-symbol" transform="matrix(1.42857,0,0,1,-57.1429,-22.4293)">
            <rect x="40" y="340" width="140" height="200" style="fill:none;"/>
            <clipPath id="_clip1">
                <rect x="40" y="340" width="140" height="200"/>
            </clipPath>
            <g clip-path="url(#_clip1)">
                <g id="A" transform="matrix(0.7,0,0,1,-22.0801,-57.5707)">
                    <g transform="matrix(-1,0,0,1,390,0)">
                        <path d="M200,400L205,540L195,540L180,600L130,600L180,400L200,400Z" style="fill:rgb(0,119,214);"/>
                    </g>
                    <g transform="matrix(1,0,0,1,-10,0)">
                        <path d="M225,400L195,540L180,600L130,600L180,400L225,400Z" style="fill:rgb(0,151,246);"/>
                    </g>
                </g>
            </g>
        </g>
    </g>
</svg>
