<?xml version="1.0" encoding="UTF-8" standalone="no"?><!DOCTYPE svg PUBLIC "-//W3C//DTD SVG 1.1//EN" "http://www.w3.org/Graphics/SVG/1.1/DTD/svg11.dtd"><svg width="100%" height="100%" viewBox="0 0 500 500" version="1.1" xmlns="http://www.w3.org/2000/svg" xmlns:xlink="http://www.w3.org/1999/xlink" xml:space="preserve" xmlns:serif="http://www.serif.com/" style="fill-rule:evenodd;clip-rule:evenodd;stroke-linecap:round;stroke-linejoin:round;stroke-miterlimit:1.5;"><rect id="Default-symbol" serif:id="Default symbol" x="0" y="0" width="500" height="500" style="fill:none;"/><g id="Symbol-Square-Default" serif:id="Symbol Square Default"><path id="Head" d="M480,134.621c-0,-63.261 -51.36,-114.621 -114.621,-114.621l-230.758,0c-63.261,0 -114.621,51.36 -114.621,114.621l-0,230.758c-0,63.261 51.36,114.621 114.621,114.621l230.758,0c63.261,0 114.621,-51.36 114.621,-114.621l-0,-230.758Z" style="fill:#0098fd;stroke:#181818;stroke-width:14.85px;"/><g id="Eyes"><path id="Left-eye" serif:id="Left eye" d="M173.063,227.849l0,5.583c0,12.739 -10.342,23.081 -23.081,23.081c-12.738,-0 -23.081,-10.342 -23.081,-23.081l0,-61.55c0,-12.738 10.343,-23.081 23.081,-23.081c12.739,0 23.081,10.343 23.081,23.081l0,15.573l-11.769,11.107c-4.633,4.372 -4.844,11.682 -0.473,16.314l12.242,12.973Z" style="fill:#191919;"/><path id="Right-eye" serif:id="Right eye" d="M373.099,227.849l-0,5.583c-0,12.739 -10.343,23.081 -23.081,23.081c-12.739,-0 -23.081,-10.342 -23.081,-23.081l-0,-61.55c-0,-12.738 10.342,-23.081 23.081,-23.081c12.738,0 23.081,10.343 23.081,23.081l-0,15.573l-11.77,11.107c-4.632,4.372 -4.844,11.682 -0.473,16.314l12.243,12.973Z" style="fill:#191919;"/></g><path id="Mouth" d="M373.099,305.476c-0,-0 -120.596,102.876 -246.198,-0" style="fill:none;stroke:#181818;stroke-width:27px;"/></g></svg>